ISO-10303-21;
HEADER;
FILE_DESCRIPTION (( 'STEP AP203' ),
    '1' );
FILE_NAME ('snoopy_drawer_Default_sldprt.STEP',
    '2026-05-21T17:12:22',
    ( '' ),
    ( '' ),
    'SwSTEP 2.0',
    'SolidWorks 2024',
    '' );
FILE_SCHEMA (( 'CONFIG_CONTROL_DESIGN' ));
ENDSEC;

DATA;
#1 = CYLINDRICAL_SURFACE ( 'NONE', #540, 5.000000000000004441 ) ;
#2 = AXIS2_PLACEMENT_3D ( 'NONE', #383, #522, #920 ) ;
#3 = AXIS2_PLACEMENT_3D ( 'NONE', #29, #561, #863 ) ;
#4 = CARTESIAN_POINT ( 'NONE',  ( 314.2699999999998681, 5.000000000000000000, -255.0000000000000568 ) ) ;
#5 = CARTESIAN_POINT ( 'NONE',  ( -314.2700000000000955, 354.0000000000000000, -255.0000000000000568 ) ) ;
#6 = ORIENTED_EDGE ( 'NONE', *, *, #145, .F. ) ;
#7 = AXIS2_PLACEMENT_3D ( 'NONE', #310, #770, #147 ) ;
#8 =( BOUNDED_CURVE ( )  B_SPLINE_CURVE ( 3, ( #997, #313, #615, #928 ),
 .UNSPECIFIED., .F., .F. ) 
 B_SPLINE_CURVE_WITH_KNOTS ( ( 4, 4 ),
 ( 4.712388980384692339, 6.283185307179586232 ),
 .UNSPECIFIED. ) 
 CURVE ( )  GEOMETRIC_REPRESENTATION_ITEM ( )  RATIONAL_B_SPLINE_CURVE ( ( 1.000000000000000000, 0.8047378541243654926, 0.8047378541243654926, 1.000000000000000000 ) ) 
 REPRESENTATION_ITEM ( '' )  );
#9 = ADVANCED_FACE ( 'NONE', ( #281 ), #571, .T. ) ;
#10 = DIRECTION ( 'NONE',  ( -1.000000000000000000, 0.000000000000000000, 0.000000000000000000 ) ) ;
#11 = ORIENTED_EDGE ( 'NONE', *, *, #673, .F. ) ;
#12 = CIRCLE ( 'NONE', #681, 5.000000000000004441 ) ;
#13 = AXIS2_PLACEMENT_3D ( 'NONE', #62, #831, #846 ) ;
#14 = ADVANCED_FACE ( 'NONE', ( #270 ), #501, .T. ) ;
#15 = DIRECTION ( 'NONE',  ( 0.000000000000000000, 0.000000000000000000, 1.000000000000000000 ) ) ;
#16 = DIRECTION ( 'NONE',  ( -1.067522139062650425E-16, 0.000000000000000000, -1.000000000000000000 ) ) ;
#17 = ORIENTED_EDGE ( 'NONE', *, *, #706, .T. ) ;
#18 = DIRECTION ( 'NONE',  ( 1.000000000000000000, -0.000000000000000000, 0.000000000000000000 ) ) ;
#19 = VECTOR ( 'NONE', #503, 1000.000000000000000 ) ;
#20 = LINE ( 'NONE', #865, #141 ) ;
#21 = ORIENTED_EDGE ( 'NONE', *, *, #620, .F. ) ;
#22 = ADVANCED_FACE ( 'NONE', ( #420 ), #730, .T. ) ;
#23 = VERTEX_POINT ( 'NONE', #887 ) ;
#24 = VECTOR ( 'NONE', #414, 1000.000000000000000 ) ;
#25 = CARTESIAN_POINT ( 'NONE',  ( -319.2700000000000955, 359.0000000000000000, -255.0000000000000568 ) ) ;
#26 = CARTESIAN_POINT ( 'NONE',  ( 314.2699999999999250, 354.0000000000000000, 259.9999999999999432 ) ) ;
#27 = FACE_OUTER_BOUND ( 'NONE', #104, .T. ) ;
#28 = EDGE_LOOP ( 'NONE', ( #629, #254, #657, #282 ) ) ;
#29 = CARTESIAN_POINT ( 'NONE',  ( -319.2699999999999818, 359.0000000000000000, 259.9999999999999432 ) ) ;
#30 = FACE_OUTER_BOUND ( 'NONE', #656, .T. ) ;
#31 = DIRECTION ( 'NONE',  ( -1.067522139062650425E-16, 0.000000000000000000, -1.000000000000000000 ) ) ;
#32 = ORIENTED_EDGE ( 'NONE', *, *, #517, .T. ) ;
#33 = CYLINDRICAL_SURFACE ( 'NONE', #875, 5.000000000000004441 ) ;
#34 = CARTESIAN_POINT ( 'NONE',  ( -314.2699999999999818, 354.0000000000000000, 254.9999999999999432 ) ) ;
#35 = CLOSED_SHELL ( 'NONE', ( #521, #664, #335, #918, #343, #857, #49, #944, #468, #125, #782, #766, #9, #76, #451, #473, #160, #797, #195, #22, #858, #939, #262, #902, #980, #609, #646, #613, #871, #56, #539, #825, #208, #14, #555, #480, #293, #328 ) ) ;
#36 = CARTESIAN_POINT ( 'NONE',  ( 0.000000000000000000, 354.0000000000000000, -255.0000000000000568 ) ) ;
#37 = DIRECTION ( 'NONE',  ( -1.000000000000000000, 0.000000000000000000, -0.000000000000000000 ) ) ;
#38 = LOCAL_TIME ( 19, 12, 22.00000000000000000, #455 ) ;
#39 = DIRECTION ( 'NONE',  ( 0.000000000000000000, 1.000000000000000000, 0.000000000000000000 ) ) ;
#40 = CARTESIAN_POINT ( 'NONE',  ( -314.2699999999999818, 359.0000000000000000, 254.9999999999999432 ) ) ;
#41 = ORIENTED_EDGE ( 'NONE', *, *, #772, .F. ) ;
#42 = CARTESIAN_POINT ( 'NONE',  ( -309.2700000000000955, 20.00000000000001776, -250.0000000000000568 ) ) ;
#43 = EDGE_CURVE ( 'NONE', #625, #23, #800, .T. ) ;
#44 = CARTESIAN_POINT ( 'NONE',  ( 309.2699999999999250, 359.0000000000000000, 249.9999999999999432 ) ) ;
#45 = ORIENTED_EDGE ( 'NONE', *, *, #814, .T. ) ;
#46 = PERSON ( 'UNSPECIFIED', 'UNSPECIFIED', 'UNSPECIFIED', ('UNSPECIFIED'), ('UNSPECIFIED'), ('UNSPECIFIED') ) ;
#47 = ORIENTED_EDGE ( 'NONE', *, *, #244, .F. ) ;
#48 = AXIS2_PLACEMENT_3D ( 'NONE', #404, #638, #260 ) ;
#49 = ADVANCED_FACE ( 'NONE', ( #505 ), #985, .T. ) ;
#50 = APPROVAL ( #662, 'UNSPECIFIED' ) ;
#51 = ORIENTED_EDGE ( 'NONE', *, *, #725, .T. ) ;
#52 = EDGE_LOOP ( 'NONE', ( #630, #127, #946, #810 ) ) ;
#53 = CARTESIAN_POINT ( 'NONE',  ( 309.2699999999998681, 20.00000000000000000, -250.0000000000000568 ) ) ;
#54 = AXIS2_PLACEMENT_3D ( 'NONE', #409, #884, #718 ) ;
#55 = EDGE_CURVE ( 'NONE', #434, #357, #839, .T. ) ;
#56 = ADVANCED_FACE ( 'NONE', ( #820 ), #674, .T. ) ;
#57 = DIRECTION ( 'NONE',  ( -1.067522139062650425E-16, 0.000000000000000000, -1.000000000000000000 ) ) ;
#58 = CC_DESIGN_PERSON_AND_ORGANIZATION_ASSIGNMENT ( #119, #901, ( #804 ) ) ;
#59 = EDGE_LOOP ( 'NONE', ( #961, #440, #304, #399 ) ) ;
#60 = DIRECTION ( 'NONE',  ( 0.000000000000000000, 1.000000000000000000, 0.000000000000000000 ) ) ;
#61 = CIRCLE ( 'NONE', #354, 5.000000000000004441 ) ;
#62 = CARTESIAN_POINT ( 'NONE',  ( -314.2700000000000955, 354.0000000000000000, -255.0000000000000568 ) ) ;
#63 = EDGE_CURVE ( 'NONE', #110, #593, #991, .T. ) ;
#64 = AXIS2_PLACEMENT_3D ( 'NONE', #461, #538, #241 ) ;
#65 = CYLINDRICAL_SURFACE ( 'NONE', #408, 5.000000000000004441 ) ;
#66 = ORIENTED_EDGE ( 'NONE', *, *, #378, .T. ) ;
#67 = EDGE_LOOP ( 'NONE', ( #976, #805, #851 ) ) ;
#68 = DIRECTION ( 'NONE',  ( 1.000000000000000000, -0.000000000000000000, 0.000000000000000000 ) ) ;
#69 = AXIS2_PLACEMENT_3D ( 'NONE', #410, #822, #133 ) ;
#70 = CARTESIAN_POINT ( 'NONE',  ( 314.2699999999998681, 359.0000000000000000, -255.0000000000000568 ) ) ;
#71 = CARTESIAN_POINT ( 'NONE',  ( -319.2700000000000955, 5.000000000000004441, -260.0000000000000568 ) ) ;
#72 = CARTESIAN_POINT ( 'NONE',  ( -309.2700000000000955, 359.0000000000000000, -250.0000000000000568 ) ) ;
#73 = EDGE_LOOP ( 'NONE', ( #860, #970, #989, #897 ) ) ;
#74 = CARTESIAN_POINT ( 'NONE',  ( 314.2699999999999250, 354.0000000000000000, 254.9999999999999432 ) ) ;
#75 = SECURITY_CLASSIFICATION_LEVEL ( 'unclassified' ) ;
#76 = ADVANCED_FACE ( 'NONE', ( #443 ), #748, .T. ) ;
#77 = FACE_OUTER_BOUND ( 'NONE', #59, .T. ) ;
#78 = VERTEX_POINT ( 'NONE', #531 ) ;
#79 = EDGE_CURVE ( 'NONE', #110, #355, #80, .T. ) ;
#80 = CIRCLE ( 'NONE', #690, 5.000000000000004441 ) ;
#81 = VECTOR ( 'NONE', #658, 1000.000000000000000 ) ;
#82 = CARTESIAN_POINT ( 'NONE',  ( 314.2699999999999250, 0.000000000000000000, 254.9999999999999432 ) ) ;
#83 = DIRECTION ( 'NONE',  ( 0.000000000000000000, 0.000000000000000000, 1.000000000000000000 ) ) ;
#84 = ORIENTED_EDGE ( 'NONE', *, *, #951, .T. ) ;
#85 = VECTOR ( 'NONE', #729, 1000.000000000000000 ) ;
#86 = CARTESIAN_POINT ( 'NONE',  ( -309.2700000000000387, 14.14213562373095989, 249.9999999999999432 ) ) ;
#87 = ORIENTED_EDGE ( 'NONE', *, *, #591, .F. ) ;
#88 = CIRCLE ( 'NONE', #196, 5.000000000000004441 ) ;
#89 = CARTESIAN_POINT ( 'NONE',  ( -314.2699999999999818, 354.0000000000000000, 254.9999999999999432 ) ) ;
#90 = CYLINDRICAL_SURFACE ( 'NONE', #381, 10.00000000000000888 ) ;
#91 = LINE ( 'NONE', #499, #793 ) ;
#92 = EDGE_CURVE ( 'NONE', #625, #856, #642, .T. ) ;
#93 = EDGE_LOOP ( 'NONE', ( #349, #995, #226, #325 ) ) ;
#94 = LINE ( 'NONE', #25, #608 ) ;
#95 = CC_DESIGN_APPROVAL ( #230, ( #401 ) ) ;
#96 = CARTESIAN_POINT ( 'NONE',  ( 314.2699999999999250, 5.000000000000004441, 254.9999999999999432 ) ) ;
#97 = DIRECTION ( 'NONE',  ( 0.000000000000000000, 1.000000000000000000, 0.000000000000000000 ) ) ;
#98 = ORIENTED_EDGE ( 'NONE', *, *, #507, .T. ) ;
#99 = VECTOR ( 'NONE', #352, 1000.000000000000000 ) ;
#100 = DIRECTION ( 'NONE',  ( 0.000000000000000000, 0.000000000000000000, -1.000000000000000000 ) ) ;
#101 = FACE_OUTER_BOUND ( 'NONE', #916, .T. ) ;
#102 = SPHERICAL_SURFACE ( 'NONE', #666, 5.000000000000000000 ) ;
#103 = DIRECTION ( 'NONE',  ( 0.000000000000000000, 0.000000000000000000, -1.000000000000000000 ) ) ;
#104 = EDGE_LOOP ( 'NONE', ( #242, #428, #585 ) ) ;
#105 = CIRCLE ( 'NONE', #245, 5.000000000000004441 ) ;
#106 = LINE ( 'NONE', #474, #654 ) ;
#107 = FACE_OUTER_BOUND ( 'NONE', #52, .T. ) ;
#108 = DIRECTION ( 'NONE',  ( 0.000000000000000000, 0.000000000000000000, 1.000000000000000000 ) ) ;
#109 = DIRECTION ( 'NONE',  ( -0.000000000000000000, -0.000000000000000000, -1.000000000000000000 ) ) ;
#110 = VERTEX_POINT ( 'NONE', #905 ) ;
#111 = ORIENTED_EDGE ( 'NONE', *, *, #580, .F. ) ;
#112 = EDGE_CURVE ( 'NONE', #23, #868, #595, .T. ) ;
#113 = DIRECTION ( 'NONE',  ( 0.000000000000000000, 0.000000000000000000, -1.000000000000000000 ) ) ;
#114 = CARTESIAN_POINT ( 'NONE',  ( 299.2699999999999250, 20.00000000000000000, -3.194773505572793288E-14 ) ) ;
#115 = CARTESIAN_POINT ( 'NONE',  ( -311.3410678118656278, 359.0000000000000568, -252.0710678118655892 ) ) ;
#116 = ORIENTED_EDGE ( 'NONE', *, *, #92, .F. ) ;
#117 = VERTEX_POINT ( 'NONE', #385 ) ;
#118 = CC_DESIGN_DATE_AND_TIME_ASSIGNMENT ( #307, #843, ( #401 ) ) ;
#119 = PERSON_AND_ORGANIZATION ( #46, #533 ) ;
#120 = ORIENTED_EDGE ( 'NONE', *, *, #361, .F. ) ;
#121 = VERTEX_POINT ( 'NONE', #453 ) ;
#122 = EDGE_CURVE ( 'NONE', #659, #174, #234, .T. ) ;
#123 = ORIENTED_EDGE ( 'NONE', *, *, #92, .T. ) ;
#124 = VECTOR ( 'NONE', #302, 1000.000000000000000 ) ;
#125 = ADVANCED_FACE ( 'NONE', ( #824 ), #136, .T. ) ;
#126 = EDGE_CURVE ( 'NONE', #867, #622, #295, .T. ) ;
#127 = ORIENTED_EDGE ( 'NONE', *, *, #542, .F. ) ;
#128 = APPROVAL_STATUS ( 'not_yet_approved' ) ;
#129 = AXIS2_PLACEMENT_3D ( 'NONE', #753, #903, #600 ) ;
#130 = DIRECTION ( 'NONE',  ( 0.000000000000000000, 0.000000000000000000, -1.000000000000000000 ) ) ;
#131 =( GEOMETRIC_REPRESENTATION_CONTEXT ( 3 ) GLOBAL_UNCERTAINTY_ASSIGNED_CONTEXT ( ( #941 ) ) GLOBAL_UNIT_ASSIGNED_CONTEXT ( ( #669, #828, #279 ) ) REPRESENTATION_CONTEXT ( 'NONE', 'WORKASPACE' ) );
#132 = ORIENTED_EDGE ( 'NONE', *, *, #126, .F. ) ;
#133 = DIRECTION ( 'NONE',  ( 0.000000000000000000, -0.000000000000000000, 1.000000000000000000 ) ) ;
#134 = DATE_AND_TIME ( #823, #732 ) ;
#135 = AXIS2_PLACEMENT_3D ( 'NONE', #534, #840, #315 ) ;
#136 = PLANE ( 'NONE',  #166 ) ;
#137 = ORIENTED_EDGE ( 'NONE', *, *, #584, .F. ) ;
#138 = ORIENTED_EDGE ( 'NONE', *, *, #935, .F. ) ;
#139 = CARTESIAN_POINT ( 'NONE',  ( 314.2699999999999250, 354.0000000000000000, 254.9999999999999432 ) ) ;
#140 = CARTESIAN_POINT ( 'NONE',  ( 309.2699999999998681, 354.0000000000000000, -260.0000000000000568 ) ) ;
#141 = VECTOR ( 'NONE', #784, 1000.000000000000000 ) ;
#142 = CARTESIAN_POINT ( 'NONE',  ( 314.2699999999998681, 5.000000000000004441, -260.0000000000000568 ) ) ;
#143 = DIRECTION ( 'NONE',  ( 0.000000000000000000, 0.000000000000000000, -1.000000000000000000 ) ) ;
#144 = ORIENTED_EDGE ( 'NONE', *, *, #63, .F. ) ;
#145 = EDGE_CURVE ( 'NONE', #750, #357, #855, .T. ) ;
#146 = DIRECTION ( 'NONE',  ( 0.000000000000000000, 1.000000000000000000, 0.000000000000000000 ) ) ;
#147 = DIRECTION ( 'NONE',  ( 0.000000000000000000, 0.000000000000000000, 1.000000000000000000 ) ) ;
#148 = DIRECTION ( 'NONE',  ( 0.000000000000000000, -1.000000000000000000, 0.000000000000000000 ) ) ;
#149 = ORIENTED_EDGE ( 'NONE', *, *, #224, .F. ) ;
#150 = CC_DESIGN_APPROVAL ( #50, ( #804 ) ) ;
#151 = EDGE_CURVE ( 'NONE', #969, #743, #155, .T. ) ;
#152 = DIRECTION ( 'NONE',  ( 0.000000000000000000, -1.000000000000000000, 0.000000000000000000 ) ) ;
#153 = VECTOR ( 'NONE', #366, 1000.000000000000000 ) ;
#154 = CARTESIAN_POINT ( 'NONE',  ( -314.2700000000000955, 359.0000000000000000, -260.0000000000000568 ) ) ;
#155 = LINE ( 'NONE', #765, #324 ) ;
#156 = ORIENTED_EDGE ( 'NONE', *, *, #814, .F. ) ;
#157 = EDGE_CURVE ( 'NONE', #434, #625, #159, .T. ) ;
#158 = FACE_OUTER_BOUND ( 'NONE', #340, .T. ) ;
#159 = CIRCLE ( 'NONE', #13, 5.000000000000004441 ) ;
#160 = ADVANCED_FACE ( 'NONE', ( #370 ), #999, .T. ) ;
#161 = LINE ( 'NONE', #845, #124 ) ;
#162 = DIRECTION ( 'NONE',  ( -1.000000000000000000, 0.000000000000000000, 0.000000000000000000 ) ) ;
#163 = LINE ( 'NONE', #606, #697 ) ;
#164 = CARTESIAN_POINT ( 'NONE',  ( 314.2699999999998681, 5.000000000000004441, -255.0000000000000568 ) ) ;
#165 = ORIENTED_EDGE ( 'NONE', *, *, #236, .F. ) ;
#166 = AXIS2_PLACEMENT_3D ( 'NONE', #444, #611, #771 ) ;
#167 = APPROVAL_ROLE ( '' ) ;
#168 = DIRECTION ( 'NONE',  ( 2.135044278125300850E-16, -0.000000000000000000, 1.000000000000000000 ) ) ;
#169 = LINE ( 'NONE', #471, #556 ) ;
#170 = ORIENTED_EDGE ( 'NONE', *, *, #733, .T. ) ;
#171 = EDGE_LOOP ( 'NONE', ( #427, #462, #596, #776 ) ) ;
#172 = DIRECTION ( 'NONE',  ( 1.000000000000000000, 0.000000000000000000, 0.000000000000000000 ) ) ;
#173 = DIRECTION ( 'NONE',  ( 0.000000000000000000, -1.000000000000000000, 0.000000000000000000 ) ) ;
#174 = VERTEX_POINT ( 'NONE', #670 ) ;
#175 = VECTOR ( 'NONE', #18, 1000.000000000000000 ) ;
#176 = DIRECTION ( 'NONE',  ( 0.000000000000000000, 0.000000000000000000, -1.000000000000000000 ) ) ;
#177 = CARTESIAN_POINT ( 'NONE',  ( 311.3410678118654005, 359.0000000000000568, -252.0710678118655892 ) ) ;
#178 = VERTEX_POINT ( 'NONE', #921 ) ;
#179 = ORIENTED_EDGE ( 'NONE', *, *, #367, .T. ) ;
#180 = CARTESIAN_POINT ( 'NONE',  ( -309.2699999999999818, 20.00000000000001776, 249.9999999999999432 ) ) ;
#181 = VECTOR ( 'NONE', #57, 1000.000000000000000 ) ;
#182 = DIRECTION ( 'NONE',  ( 1.000000000000000000, 0.000000000000000000, -2.135044278125300850E-16 ) ) ;
#183 = DIRECTION ( 'NONE',  ( 0.000000000000000000, 0.000000000000000000, -1.000000000000000000 ) ) ;
#184 = DIRECTION ( 'NONE',  ( -2.135044278125300850E-16, -0.000000000000000000, -1.000000000000000000 ) ) ;
#185 = ORIENTED_EDGE ( 'NONE', *, *, #687, .T. ) ;
#186 = AXIS2_PLACEMENT_3D ( 'NONE', #758, #685, #83 ) ;
#187 = CARTESIAN_POINT ( 'NONE',  ( 314.2699999999999250, 5.000000000000004441, 259.9999999999999432 ) ) ;
#188 = APPLICATION_CONTEXT ( 'configuration controlled 3d designs of mechanical parts and assemblies' ) ;
#189 = CYLINDRICAL_SURFACE ( 'NONE', #527, 10.00000000000000888 ) ;
#190 = CARTESIAN_POINT ( 'NONE',  ( 314.2699999999998681, 359.0000000000000000, -260.0000000000000568 ) ) ;
#191 = CARTESIAN_POINT ( 'NONE',  ( 319.2699999999998681, 5.000000000000004441, -255.0000000000000568 ) ) ;
#192 = PLANE ( 'NONE',  #979 ) ;
#193 = CYLINDRICAL_SURFACE ( 'NONE', #514, 10.00000000000000888 ) ;
#194 = CARTESIAN_POINT ( 'NONE',  ( -319.2700000000000955, 5.000000000000004441, -255.0000000000000568 ) ) ;
#195 = ADVANCED_FACE ( 'NONE', ( #448 ), #65, .T. ) ;
#196 = AXIS2_PLACEMENT_3D ( 'NONE', #327, #722, #274 ) ;
#197 = CARTESIAN_POINT ( 'NONE',  ( -319.2699999999999818, 354.0000000000000000, 254.9999999999999432 ) ) ;
#198 = CARTESIAN_POINT ( 'NONE',  ( 309.2699999999999250, 354.0000000000000000, 249.9999999999999432 ) ) ;
#199 = PRODUCT ( 'snoopy_drawer_Default_sldprt', 'snoopy_drawer_Default_sldprt', '', ( #368 ) ) ;
#200 = LINE ( 'NONE', #639, #456 ) ;
#201 = CARTESIAN_POINT ( 'NONE',  ( 309.2699999999998681, 20.00000000000001776, -250.0000000000000568 ) ) ;
#202 = CC_DESIGN_PERSON_AND_ORGANIZATION_ASSIGNMENT ( #927, #853, ( #838 ) ) ;
#203 = CARTESIAN_POINT ( 'NONE',  ( -319.2700000000000955, 359.0000000000000000, -260.0000000000000568 ) ) ;
#204 = AXIS2_PLACEMENT_3D ( 'NONE', #447, #209, #752 ) ;
#205 = LINE ( 'NONE', #896, #926 ) ;
#206 = ORIENTED_EDGE ( 'NONE', *, *, #308, .F. ) ;
#207 = ORIENTED_EDGE ( 'NONE', *, *, #265, .T. ) ;
#208 = ADVANCED_FACE ( 'NONE', ( #532 ), #992, .T. ) ;
#209 = DIRECTION ( 'NONE',  ( 0.000000000000000000, 1.000000000000000000, 0.000000000000000000 ) ) ;
#210 = DIRECTION ( 'NONE',  ( 1.000000000000000000, 0.000000000000000000, 0.000000000000000000 ) ) ;
#211 = ORIENTED_EDGE ( 'NONE', *, *, #55, .F. ) ;
#212 = CARTESIAN_POINT ( 'NONE',  ( -314.2700000000000955, 5.000000000000000000, -255.0000000000000568 ) ) ;
#213 = ORIENTED_EDGE ( 'NONE', *, *, #284, .T. ) ;
#214 = ADVANCED_BREP_SHAPE_REPRESENTATION ( 'snoopy_drawer_Default_sldprt', ( #864, #509 ), #131 ) ;
#215 = DATE_TIME_ROLE ( 'creation_date' ) ;
#216 = DIRECTION ( 'NONE',  ( -0.000000000000000000, 1.000000000000000000, -0.000000000000000000 ) ) ;
#217 = AXIS2_PLACEMENT_3D ( 'NONE', #142, #369, #228 ) ;
#218 = DIRECTION ( 'NONE',  ( 0.000000000000000000, -1.000000000000000000, 0.000000000000000000 ) ) ;
#219 = CARTESIAN_POINT ( 'NONE',  ( -314.2700000000000955, 0.000000000000000000, -255.0000000000000568 ) ) ;
#220 = CALENDAR_DATE ( 2026, 21, 5 ) ;
#221 = VECTOR ( 'NONE', #491, 1000.000000000000000 ) ;
#222 = DIRECTION ( 'NONE',  ( 1.000000000000000000, 0.000000000000000000, 0.000000000000000000 ) ) ;
#223 = EDGE_CURVE ( 'NONE', #513, #121, #470, .T. ) ;
#224 = EDGE_CURVE ( 'NONE', #355, #867, #930, .T. ) ;
#225 = ORIENTED_EDGE ( 'NONE', *, *, #695, .T. ) ;
#226 = ORIENTED_EDGE ( 'NONE', *, *, #660, .F. ) ;
#227 = DIRECTION ( 'NONE',  ( 1.000000000000000000, 0.000000000000000000, 0.000000000000000000 ) ) ;
#228 = DIRECTION ( 'NONE',  ( -1.000000000000000000, 0.000000000000000000, 0.000000000000000000 ) ) ;
#229 = DIRECTION ( 'NONE',  ( 2.135044278125300850E-16, -0.000000000000000000, 1.000000000000000000 ) ) ;
#230 = APPROVAL ( #696, 'UNSPECIFIED' ) ;
#231 = ORIENTED_EDGE ( 'NONE', *, *, #672, .T. ) ;
#232 = CARTESIAN_POINT ( 'NONE',  ( -309.2699999999999818, 359.0000000000000000, 249.9999999999999432 ) ) ;
#233 = CYLINDRICAL_SURFACE ( 'NONE', #186, 10.00000000000000888 ) ;
#234 = LINE ( 'NONE', #686, #342 ) ;
#235 = SHAPE_DEFINITION_REPRESENTATION ( #712, #214 ) ;
#236 = EDGE_CURVE ( 'NONE', #962, #785, #849, .T. ) ;
#237 = CARTESIAN_POINT ( 'NONE',  ( -309.2700000000000955, 20.00000000000001776, -250.0000000000000568 ) ) ;
#238 = EDGE_CURVE ( 'NONE', #174, #357, #663, .T. ) ;
#239 = AXIS2_PLACEMENT_3D ( 'NONE', #1001, #511, #898 ) ;
#240 = DIRECTION ( 'NONE',  ( -1.000000000000000000, 0.000000000000000000, 0.000000000000000000 ) ) ;
#241 = DIRECTION ( 'NONE',  ( 1.110223024625155594E-14, 1.000000000000000000, 0.000000000000000000 ) ) ;
#242 = ORIENTED_EDGE ( 'NONE', *, *, #763, .T. ) ;
#243 = DIRECTION ( 'NONE',  ( 1.000000000000000000, 0.000000000000000000, 0.000000000000000000 ) ) ;
#244 = EDGE_CURVE ( 'NONE', #581, #553, #163, .T. ) ;
#245 = AXIS2_PLACEMENT_3D ( 'NONE', #801, #109, #418 ) ;
#246 = CARTESIAN_POINT ( 'NONE',  ( -319.2699999999999818, 5.000000000000004441, 259.9999999999999432 ) ) ;
#247 = EDGE_LOOP ( 'NONE', ( #891, #602, #977, #290 ) ) ;
#248 = DIRECTION ( 'NONE',  ( 0.000000000000000000, -1.000000000000000000, 0.000000000000000000 ) ) ;
#249 = DIRECTION ( 'NONE',  ( -0.000000000000000000, 1.000000000000000000, -0.000000000000000000 ) ) ;
#250 =( BOUNDED_CURVE ( )  B_SPLINE_CURVE ( 3, ( #237, #778, #832, #541 ),
 .UNSPECIFIED., .F., .T. ) 
 B_SPLINE_CURVE_WITH_KNOTS ( ( 4, 4 ),
 ( 3.141592653589791340, 4.712388980384689674 ),
 .UNSPECIFIED. ) 
 CURVE ( )  GEOMETRIC_REPRESENTATION_ITEM ( )  RATIONAL_B_SPLINE_CURVE ( ( 1.000000000000000000, 0.8047378541243646044, 0.8047378541243646044, 1.000000000000000000 ) ) 
 REPRESENTATION_ITEM ( '' )  );
#251 = DIRECTION ( 'NONE',  ( 1.000000000000000000, 0.000000000000000000, 0.000000000000000000 ) ) ;
#252 = EDGE_LOOP ( 'NONE', ( #834, #415, #643, #736 ) ) ;
#253 = DIRECTION ( 'NONE',  ( -1.067522139062650425E-16, 0.000000000000000000, -1.000000000000000000 ) ) ;
#254 = ORIENTED_EDGE ( 'NONE', *, *, #484, .T. ) ;
#255 = CYLINDRICAL_SURFACE ( 'NONE', #299, 5.000000000000004441 ) ;
#256 = ORIENTED_EDGE ( 'NONE', *, *, #63, .T. ) ;
#257 = AXIS2_PLACEMENT_3D ( 'NONE', #482, #97, #958 ) ;
#258 = LINE ( 'NONE', #272, #19 ) ;
#259 = DIRECTION ( 'NONE',  ( 0.000000000000000000, 0.000000000000000000, -1.000000000000000000 ) ) ;
#260 = DIRECTION ( 'NONE',  ( 1.000000000000000000, 0.000000000000000000, -0.000000000000000000 ) ) ;
#261 = EDGE_LOOP ( 'NONE', ( #612, #699, #364, #724 ) ) ;
#262 = ADVANCED_FACE ( 'NONE', ( #996 ), #922, .T. ) ;
#263 = FACE_OUTER_BOUND ( 'NONE', #754, .T. ) ;
#264 = APPROVAL_PERSON_ORGANIZATION ( #917, #230, #167 ) ;
#265 = EDGE_CURVE ( 'NONE', #622, #582, #826, .T. ) ;
#266 = CARTESIAN_POINT ( 'NONE',  ( -314.2699999999999818, 359.0000000000000000, 259.9999999999999432 ) ) ;
#267 = DIRECTION ( 'NONE',  ( 1.000000000000000000, 0.000000000000000000, -0.000000000000000000 ) ) ;
#268 = CARTESIAN_POINT ( 'NONE',  ( 319.2699999999998681, 5.000000000000004441, -260.0000000000000568 ) ) ;
#269 = CARTESIAN_POINT ( 'NONE',  ( -309.2700000000000955, 20.00000000000000000, -250.0000000000000568 ) ) ;
#270 = FACE_OUTER_BOUND ( 'NONE', #171, .T. ) ;
#271 = VECTOR ( 'NONE', #248, 1000.000000000000000 ) ;
#272 = CARTESIAN_POINT ( 'NONE',  ( 314.2699999999999250, 0.000000000000000000, -3.354901826432191303E-14 ) ) ;
#273 = DIRECTION ( 'NONE',  ( -0.000000000000000000, -0.000000000000000000, 1.000000000000000000 ) ) ;
#274 = DIRECTION ( 'NONE',  ( 0.000000000000000000, 0.000000000000000000, 1.000000000000000000 ) ) ;
#275 = DIRECTION ( 'NONE',  ( -0.000000000000000000, -0.000000000000000000, -1.000000000000000000 ) ) ;
#276 = DIRECTION ( 'NONE',  ( 0.000000000000000000, 0.000000000000000000, -1.000000000000000000 ) ) ;
#277 = CIRCLE ( 'NONE', #476, 5.000000000000004441 ) ;
#278 = ORIENTED_EDGE ( 'NONE', *, *, #983, .F. ) ;
#279 =( NAMED_UNIT ( * ) SI_UNIT ( $, .STERADIAN. ) SOLID_ANGLE_UNIT ( ) );
#280 = CARTESIAN_POINT ( 'NONE',  ( 309.2699999999998681, 356.9289321881344677, -250.0000000000000284 ) ) ;
#281 = FACE_OUTER_BOUND ( 'NONE', #247, .T. ) ;
#282 = ORIENTED_EDGE ( 'NONE', *, *, #542, .T. ) ;
#283 = ORIENTED_EDGE ( 'NONE', *, *, #683, .T. ) ;
#284 = EDGE_CURVE ( 'NONE', #348, #78, #350, .T. ) ;
#285 = LOCAL_TIME ( 19, 12, 22.00000000000000000, #984 ) ;
#286 = DIRECTION ( 'NONE',  ( 1.000000000000000000, 0.000000000000000000, 0.000000000000000000 ) ) ;
#287 = ORIENTED_EDGE ( 'NONE', *, *, #526, .F. ) ;
#288 = APPROVAL_DATE_TIME ( #819, #50 ) ;
#289 = CIRCLE ( 'NONE', #964, 5.000000000000004441 ) ;
#290 = ORIENTED_EDGE ( 'NONE', *, *, #515, .F. ) ;
#291 = ORIENTED_EDGE ( 'NONE', *, *, #751, .F. ) ;
#292 = APPLICATION_PROTOCOL_DEFINITION ( 'international standard', 'config_control_design', 1994, #719 ) ;
#293 = ADVANCED_FACE ( 'NONE', ( #359 ), #193, .F. ) ;
#294 = EDGE_CURVE ( 'NONE', #581, #827, #904, .T. ) ;
#295 = LINE ( 'NONE', #379, #731 ) ;
#296 = CARTESIAN_POINT ( 'NONE',  ( 314.2699999999998681, 5.000000000000000000, -255.0000000000000568 ) ) ;
#297 = CC_DESIGN_PERSON_AND_ORGANIZATION_ASSIGNMENT ( #463, #761, ( #401 ) ) ;
#298 = CARTESIAN_POINT ( 'NONE',  ( -314.2700000000000955, 354.0000000000000000, -260.0000000000000568 ) ) ;
#299 = AXIS2_PLACEMENT_3D ( 'NONE', #624, #253, #551 ) ;
#300 = EDGE_CURVE ( 'NONE', #553, #940, #808, .T. ) ;
#301 = DIRECTION ( 'NONE',  ( 0.000000000000000000, 0.000000000000000000, -1.000000000000000000 ) ) ;
#302 = DIRECTION ( 'NONE',  ( 0.000000000000000000, -1.000000000000000000, 0.000000000000000000 ) ) ;
#303 = CARTESIAN_POINT ( 'NONE',  ( 314.2699999999999250, 359.0000000000000000, 254.9999999999999432 ) ) ;
#304 = ORIENTED_EDGE ( 'NONE', *, *, #935, .T. ) ;
#305 = EDGE_LOOP ( 'NONE', ( #51, #563, #156, #993 ) ) ;
#306 = EDGE_CURVE ( 'NONE', #117, #553, #735, .T. ) ;
#307 = DATE_AND_TIME ( #688, #311 ) ;
#308 = EDGE_CURVE ( 'NONE', #582, #750, #205, .T. ) ;
#309 = CARTESIAN_POINT ( 'NONE',  ( -314.2700000000000955, 5.000000000000004441, -260.0000000000000568 ) ) ;
#310 = CARTESIAN_POINT ( 'NONE',  ( -314.2700000000000955, 5.000000000000004441, -255.0000000000000568 ) ) ;
#311 = LOCAL_TIME ( 19, 12, 22.00000000000000000, #768 ) ;
#312 = EDGE_CURVE ( 'NONE', #622, #962, #289, .T. ) ;
#313 = CARTESIAN_POINT ( 'NONE',  ( 305.1278643762689740, 10.00000000000001421, 245.8578643762689921 ) ) ;
#314 = LINE ( 'NONE', #154, #614 ) ;
#315 = DIRECTION ( 'NONE',  ( 0.000000000000000000, 0.000000000000000000, 1.000000000000000000 ) ) ;
#316 = VERTEX_POINT ( 'NONE', #972 ) ;
#317 = CYLINDRICAL_SURFACE ( 'NONE', #914, 5.000000000000004441 ) ;
#318 = CIRCLE ( 'NONE', #885, 5.000000000000004441 ) ;
#319 = VERTEX_POINT ( 'NONE', #487 ) ;
#320 = EDGE_LOOP ( 'NONE', ( #816, #986, #544, #360 ) ) ;
#321 = LINE ( 'NONE', #698, #749 ) ;
#322 = EDGE_CURVE ( 'NONE', #528, #178, #911, .T. ) ;
#323 = CYLINDRICAL_SURFACE ( 'NONE', #529, 5.000000000000004441 ) ;
#324 = VECTOR ( 'NONE', #229, 1000.000000000000000 ) ;
#325 = ORIENTED_EDGE ( 'NONE', *, *, #484, .F. ) ;
#326 = DIRECTION ( 'NONE',  ( 1.067522139062650425E-16, 0.000000000000000000, 1.000000000000000000 ) ) ;
#327 = CARTESIAN_POINT ( 'NONE',  ( -314.2699999999999818, 5.000000000000000000, 254.9999999999999432 ) ) ;
#328 = ADVANCED_FACE ( 'NONE', ( #583 ), #189, .F. ) ;
#329 = EDGE_LOOP ( 'NONE', ( #231, #550, #876, #256 ) ) ;
#330 = AXIS2_PLACEMENT_3D ( 'NONE', #296, #597, #671 ) ;
#331 = ORIENTED_EDGE ( 'NONE', *, *, #312, .F. ) ;
#332 = PLANE ( 'NONE',  #862 ) ;
#333 = CYLINDRICAL_SURFACE ( 'NONE', #847, 5.000000000000004441 ) ;
#334 = ORIENTED_EDGE ( 'NONE', *, *, #720, .F. ) ;
#335 = ADVANCED_FACE ( 'NONE', ( #908 ), #990, .F. ) ;
#336 = CARTESIAN_POINT ( 'NONE',  ( -319.2700000000000955, 354.0000000000000000, -255.0000000000000568 ) ) ;
#337 = CARTESIAN_POINT ( 'NONE',  ( 314.2699999999999250, 354.0000000000000000, -3.354901826432191303E-14 ) ) ;
#338 = CARTESIAN_POINT ( 'NONE',  ( -314.2699999999999818, 0.000000000000000000, 254.9999999999999432 ) ) ;
#339 = EDGE_LOOP ( 'NONE', ( #98, #213, #41 ) ) ;
#340 = EDGE_LOOP ( 'NONE', ( #111, #406, #87, #149 ) ) ;
#341 = AXIS2_PLACEMENT_3D ( 'NONE', #458, #222, #143 ) ;
#342 = VECTOR ( 'NONE', #759, 1000.000000000000000 ) ;
#343 = ADVANCED_FACE ( 'NONE', ( #101 ), #504, .F. ) ;
#344 = CARTESIAN_POINT ( 'NONE',  ( 319.2699999999999250, 354.0000000000000000, 254.9999999999999432 ) ) ;
#345 = DIRECTION ( 'NONE',  ( 0.000000000000000000, 1.000000000000000000, -0.000000000000000000 ) ) ;
#346 = CARTESIAN_POINT ( 'NONE',  ( 309.2699999999999250, 10.00000000000000000, 239.9999999999999432 ) ) ;
#347 = SPHERICAL_SURFACE ( 'NONE', #493, 5.000000000000000000 ) ;
#348 = VERTEX_POINT ( 'NONE', #219 ) ;
#349 = ORIENTED_EDGE ( 'NONE', *, *, #772, .T. ) ;
#350 = CIRCLE ( 'NONE', #777, 5.000000000000004441 ) ;
#351 = CARTESIAN_POINT ( 'NONE',  ( -314.2699999999999818, 359.0000000000000000, 254.9999999999999432 ) ) ;
#352 = DIRECTION ( 'NONE',  ( 0.000000000000000000, -1.000000000000000000, 0.000000000000000000 ) ) ;
#353 = CARTESIAN_POINT ( 'NONE',  ( -309.2700000000000955, 354.0000000000000000, -250.0000000000000568 ) ) ;
#354 = AXIS2_PLACEMENT_3D ( 'NONE', #164, #249, #464 ) ;
#355 = VERTEX_POINT ( 'NONE', #721 ) ;
#356 = SPHERICAL_SURFACE ( 'NONE', #204, 5.000000000000000000 ) ;
#357 = VERTEX_POINT ( 'NONE', #567 ) ;
#358 = DIRECTION ( 'NONE',  ( 1.000000000000000000, 0.000000000000000000, 0.000000000000000000 ) ) ;
#359 = FACE_OUTER_BOUND ( 'NONE', #587, .T. ) ;
#360 = ORIENTED_EDGE ( 'NONE', *, *, #151, .F. ) ;
#361 = EDGE_CURVE ( 'NONE', #625, #121, #496, .T. ) ;
#362 = APPROVAL_ROLE ( '' ) ;
#363 = AXIS2_PLACEMENT_3D ( 'NONE', #405, #881, #103 ) ;
#364 = ORIENTED_EDGE ( 'NONE', *, *, #439, .F. ) ;
#365 = VECTOR ( 'NONE', #923, 1000.000000000000000 ) ;
#366 = DIRECTION ( 'NONE',  ( 2.135044278125300850E-16, -0.000000000000000000, 1.000000000000000000 ) ) ;
#367 = EDGE_CURVE ( 'NONE', #174, #750, #842, .T. ) ;
#368 = MECHANICAL_CONTEXT ( 'NONE', #719, 'mechanical' ) ;
#369 = DIRECTION ( 'NONE',  ( -1.067522139062650425E-16, 0.000000000000000000, -1.000000000000000000 ) ) ;
#370 = FACE_OUTER_BOUND ( 'NONE', #339, .T. ) ;
#371 = CC_DESIGN_PERSON_AND_ORGANIZATION_ASSIGNMENT ( #747, #546, ( #838 ) ) ;
#372 = CARTESIAN_POINT ( 'NONE',  ( 319.2699999999998681, 354.0000000000000000, -260.0000000000000568 ) ) ;
#373 = EDGE_LOOP ( 'NONE', ( #512, #519, #485, #667 ) ) ;
#374 = ORIENTED_EDGE ( 'NONE', *, *, #244, .T. ) ;
#375 = DATE_AND_TIME ( #380, #38 ) ;
#376 = AXIS2_PLACEMENT_3D ( 'NONE', #682, #545, #852 ) ;
#377 = FACE_OUTER_BOUND ( 'NONE', #261, .T. ) ;
#378 = EDGE_CURVE ( 'NONE', #593, #513, #627, .T. ) ;
#379 = CARTESIAN_POINT ( 'NONE',  ( 314.2699999999999818, 359.0000000000000000, 259.9999999999999432 ) ) ;
#380 = CALENDAR_DATE ( 2026, 21, 5 ) ;
#381 = AXIS2_PLACEMENT_3D ( 'NONE', #552, #628, #966 ) ;
#382 = CARTESIAN_POINT ( 'NONE',  ( -305.1278643762690876, 10.00000000000000000, 245.8578643762689921 ) ) ;
#383 = CARTESIAN_POINT ( 'NONE',  ( -319.2700000000000955, 359.0000000000000000, -250.0000000000000568 ) ) ;
#384 = DIRECTION ( 'NONE',  ( 2.135044278125300850E-16, -0.000000000000000000, 1.000000000000000000 ) ) ;
#385 = CARTESIAN_POINT ( 'NONE',  ( 309.2699999999999250, 354.0000000000000000, 249.9999999999999432 ) ) ;
#386 = EDGE_LOOP ( 'NONE', ( #477, #649, #635, #144 ) ) ;
#387 = CARTESIAN_POINT ( 'NONE',  ( -319.2699999999999818, 354.0000000000000000, 259.9999999999999432 ) ) ;
#388 = CARTESIAN_POINT ( 'NONE',  ( 319.2699999999998681, 359.0000000000000000, -260.0000000000000568 ) ) ;
#389 = LINE ( 'NONE', #387, #781 ) ;
#390 = PLANE ( 'NONE',  #738 ) ;
#391 = ORIENTED_EDGE ( 'NONE', *, *, #300, .T. ) ;
#392 = EDGE_CURVE ( 'NONE', #867, #785, #536, .T. ) ;
#393 = DIRECTION ( 'NONE',  ( 0.000000000000000000, -1.000000000000000000, 0.000000000000000000 ) ) ;
#394 = ORIENTED_EDGE ( 'NONE', *, *, #157, .T. ) ;
#395 = FACE_OUTER_BOUND ( 'NONE', #888, .T. ) ;
#396 = CC_DESIGN_DATE_AND_TIME_ASSIGNMENT ( #429, #215, ( #804 ) ) ;
#397 = DIRECTION ( 'NONE',  ( 1.000000000000000000, 0.000000000000000000, 0.000000000000000000 ) ) ;
#398 = LINE ( 'NONE', #953, #24 ) ;
#399 = ORIENTED_EDGE ( 'NONE', *, *, #236, .T. ) ;
#400 = EDGE_CURVE ( 'NONE', #821, #680, #91, .T. ) ;
#401 = SECURITY_CLASSIFICATION ( '', '', #75 ) ;
#402 = CARTESIAN_POINT ( 'NONE',  ( 0.000000000000000000, 0.000000000000000000, -255.0000000000000568 ) ) ;
#403 = CARTESIAN_POINT ( 'NONE',  ( -319.2699999999999818, 354.0000000000000000, 254.9999999999999432 ) ) ;
#404 = CARTESIAN_POINT ( 'NONE',  ( -319.2700000000000955, 359.0000000000000000, -260.0000000000000568 ) ) ;
#405 = CARTESIAN_POINT ( 'NONE',  ( 314.2699999999999250, 5.000000000000000000, 254.9999999999999432 ) ) ;
#406 = ORIENTED_EDGE ( 'NONE', *, *, #400, .F. ) ;
#407 = EDGE_CURVE ( 'NONE', #319, #23, #200, .T. ) ;
#408 = AXIS2_PLACEMENT_3D ( 'NONE', #303, #148, #675 ) ;
#409 = CARTESIAN_POINT ( 'NONE',  ( 0.000000000000000000, 354.0000000000000000, 254.9999999999999432 ) ) ;
#410 = CARTESIAN_POINT ( 'NONE',  ( 0.000000000000000000, 0.000000000000000000, 0.000000000000000000 ) ) ;
#411 = DIRECTION ( 'NONE',  ( 0.000000000000000000, 0.000000000000000000, 1.000000000000000000 ) ) ;
#412 = VECTOR ( 'NONE', #886, 1000.000000000000000 ) ;
#413 = PLANE ( 'NONE',  #48 ) ;
#414 = DIRECTION ( 'NONE',  ( 1.000000000000000000, -0.000000000000000000, 0.000000000000000000 ) ) ;
#415 = ORIENTED_EDGE ( 'NONE', *, *, #526, .T. ) ;
#416 = CC_DESIGN_PERSON_AND_ORGANIZATION_ASSIGNMENT ( #518, #988, ( #199 ) ) ;
#417 = CARTESIAN_POINT ( 'NONE',  ( -314.2700000000000955, 359.0000000000000000, -255.0000000000000568 ) ) ;
#418 = DIRECTION ( 'NONE',  ( 1.000000000000000000, 0.000000000000000000, 0.000000000000000000 ) ) ;
#419 = DIRECTION ( 'NONE',  ( -1.000000000000000000, 0.000000000000000000, 0.000000000000000000 ) ) ;
#420 = FACE_OUTER_BOUND ( 'NONE', #386, .T. ) ;
#421 = VERTEX_POINT ( 'NONE', #558 ) ;
#422 = CYLINDRICAL_SURFACE ( 'NONE', #54, 5.000000000000004441 ) ;
#423 = VECTOR ( 'NONE', #705, 1000.000000000000000 ) ;
#424 = DIRECTION ( 'NONE',  ( -0.000000000000000000, 1.000000000000000000, -0.000000000000000000 ) ) ;
#425 = CARTESIAN_POINT ( 'NONE',  ( -309.2699999999999818, 20.00000000000000000, 249.9999999999999432 ) ) ;
#426 = CARTESIAN_POINT ( 'NONE',  ( -309.2700000000000955, 356.9289321881344677, -250.0000000000000284 ) ) ;
#427 = ORIENTED_EDGE ( 'NONE', *, *, #439, .T. ) ;
#428 = ORIENTED_EDGE ( 'NONE', *, *, #580, .T. ) ;
#429 = DATE_AND_TIME ( #220, #709 ) ;
#430 = EDGE_CURVE ( 'NONE', #121, #582, #398, .T. ) ;
#431 = AXIS2_PLACEMENT_3D ( 'NONE', #452, #692, #251 ) ;
#432 = ORIENTED_EDGE ( 'NONE', *, *, #523, .F. ) ;
#433 = CARTESIAN_POINT ( 'NONE',  ( 0.000000000000000000, 0.000000000000000000, 0.000000000000000000 ) ) ;
#434 = VERTEX_POINT ( 'NONE', #874 ) ;
#435 = CARTESIAN_POINT ( 'NONE',  ( -311.3410678118655142, 359.0000000000000568, 252.0710678118654471 ) ) ;
#436 = EDGE_CURVE ( 'NONE', #940, #868, #959, .T. ) ;
#437 = AXIS2_PLACEMENT_3D ( 'NONE', #194, #815, #579 ) ;
#438 = AXIS2_PLACEMENT_3D ( 'NONE', #197, #950, #100 ) ;
#439 = EDGE_CURVE ( 'NONE', #319, #750, #899, .T. ) ;
#440 = ORIENTED_EDGE ( 'NONE', *, *, #122, .T. ) ;
#441 = APPROVAL_DATE_TIME ( #134, #879 ) ;
#442 = CIRCLE ( 'NONE', #7, 5.000000000000004441 ) ;
#443 = FACE_OUTER_BOUND ( 'NONE', #893, .T. ) ;
#444 = CARTESIAN_POINT ( 'NONE',  ( 0.000000000000000000, 10.00000000000000000, 0.000000000000000000 ) ) ;
#445 = EDGE_LOOP ( 'NONE', ( #211, #394, #703, #704 ) ) ;
#446 = VECTOR ( 'NONE', #31, 1000.000000000000000 ) ;
#447 = CARTESIAN_POINT ( 'NONE',  ( -314.2699999999999818, 354.0000000000000000, 254.9999999999999432 ) ) ;
#448 = FACE_OUTER_BOUND ( 'NONE', #601, .T. ) ;
#449 = ORIENTED_EDGE ( 'NONE', *, *, #392, .T. ) ;
#450 = FACE_OUTER_BOUND ( 'NONE', #67, .T. ) ;
#451 = ADVANCED_FACE ( 'NONE', ( #483 ), #795, .T. ) ;
#452 = CARTESIAN_POINT ( 'NONE',  ( 314.2699999999999250, 5.000000000000000000, 254.9999999999999432 ) ) ;
#453 = CARTESIAN_POINT ( 'NONE',  ( -314.2699999999999818, 359.0000000000000000, 254.9999999999999432 ) ) ;
#454 = EDGE_LOOP ( 'NONE', ( #170, #975, #459, #17 ) ) ;
#455 = COORDINATED_UNIVERSAL_TIME_OFFSET ( 1, 0, .AHEAD. ) ;
#456 = VECTOR ( 'NONE', #419, 1000.000000000000000 ) ;
#457 = DIRECTION ( 'NONE',  ( 1.000000000000000000, 0.000000000000000000, 0.000000000000000000 ) ) ;
#458 = CARTESIAN_POINT ( 'NONE',  ( -314.2700000000000955, 5.000000000000000000, -255.0000000000000568 ) ) ;
#459 = ORIENTED_EDGE ( 'NONE', *, *, #112, .F. ) ;
#460 = DIRECTION ( 'NONE',  ( 0.000000000000000000, 0.000000000000000000, -1.000000000000000000 ) ) ;
#461 = CARTESIAN_POINT ( 'NONE',  ( 314.2699999999998681, 354.0000000000000000, -255.0000000000000568 ) ) ;
#462 = ORIENTED_EDGE ( 'NONE', *, *, #948, .T. ) ;
#463 = PERSON_AND_ORGANIZATION ( #46, #533 ) ;
#464 = DIRECTION ( 'NONE',  ( 0.000000000000000000, 0.000000000000000000, -1.000000000000000000 ) ) ;
#465 = VECTOR ( 'NONE', #218, 1000.000000000000000 ) ;
#466 = LINE ( 'NONE', #610, #572 ) ;
#467 = ORIENTED_EDGE ( 'NONE', *, *, #974, .T. ) ;
#468 = ADVANCED_FACE ( 'NONE', ( #790 ), #192, .T. ) ;
#469 = DIRECTION ( 'NONE',  ( 2.135044278125300850E-16, -0.000000000000000000, 1.000000000000000000 ) ) ;
#470 = CIRCLE ( 'NONE', #135, 5.000000000000004441 ) ;
#471 = CARTESIAN_POINT ( 'NONE',  ( 299.2699999999999250, 10.00000000000000000, -250.0000000000000568 ) ) ;
#472 = ORIENTED_EDGE ( 'NONE', *, *, #294, .F. ) ;
#473 = ADVANCED_FACE ( 'NONE', ( #27 ), #347, .T. ) ;
#474 = CARTESIAN_POINT ( 'NONE',  ( -314.2700000000000387, 0.000000000000000000, 6.709803652864383867E-14 ) ) ;
#475 = CARTESIAN_POINT ( 'NONE',  ( 319.2699999999999250, 354.0000000000000000, 259.9999999999999432 ) ) ;
#476 = AXIS2_PLACEMENT_3D ( 'NONE', #547, #15, #457 ) ;
#477 = ORIENTED_EDGE ( 'NONE', *, *, #79, .T. ) ;
#478 = ORIENTED_EDGE ( 'NONE', *, *, #836, .F. ) ;
#479 = DIRECTION ( 'NONE',  ( 1.000000000000000000, 0.000000000000000000, -2.135044278125300850E-16 ) ) ;
#480 = ADVANCED_FACE ( 'NONE', ( #723 ), #233, .F. ) ;
#481 = CARTESIAN_POINT ( 'NONE',  ( 311.3410678118655142, 359.0000000000000568, 252.0710678118654471 ) ) ;
#482 = CARTESIAN_POINT ( 'NONE',  ( -314.2700000000000955, 354.0000000000000000, -255.0000000000000568 ) ) ;
#483 = FACE_OUTER_BOUND ( 'NONE', #1000, .T. ) ;
#484 = EDGE_CURVE ( 'NONE', #316, #434, #314, .T. ) ;
#485 = ORIENTED_EDGE ( 'NONE', *, *, #43, .F. ) ;
#486 = DIRECTION ( 'NONE',  ( -1.000000000000000000, 0.000000000000000000, 1.067522139062650425E-16 ) ) ;
#487 = CARTESIAN_POINT ( 'NONE',  ( 309.2699999999998681, 354.0000000000000000, -250.0000000000000568 ) ) ;
#488 = EDGE_CURVE ( 'NONE', #78, #110, #616, .T. ) ;
#489 = CARTESIAN_POINT ( 'NONE',  ( -314.2700000000000955, 354.0000000000000000, -255.0000000000000568 ) ) ;
#490 = LINE ( 'NONE', #268, #446 ) ;
#491 = DIRECTION ( 'NONE',  ( -2.135044278125300850E-16, -0.000000000000000000, -1.000000000000000000 ) ) ;
#492 = ORIENTED_EDGE ( 'NONE', *, *, #934, .F. ) ;
#493 = AXIS2_PLACEMENT_3D ( 'NONE', #648, #967, #577 ) ;
#494 = LINE ( 'NONE', #402, #756 ) ;
#495 = CARTESIAN_POINT ( 'NONE',  ( -314.2699999999999818, 5.000000000000004441, 254.9999999999999432 ) ) ;
#496 = LINE ( 'NONE', #266, #153 ) ;
#497 = DIRECTION ( 'NONE',  ( 1.000000000000000000, 0.000000000000000000, -1.067522139062645741E-16 ) ) ;
#498 = CIRCLE ( 'NONE', #431, 5.000000000000004441 ) ;
#499 = CARTESIAN_POINT ( 'NONE',  ( 0.000000000000000000, 0.000000000000000000, 254.9999999999999432 ) ) ;
#500 = CARTESIAN_POINT ( 'NONE',  ( 309.2699999999999250, 14.14213562373095989, -250.0000000000001137 ) ) ;
#501 = CYLINDRICAL_SURFACE ( 'NONE', #872, 5.000000000000004441 ) ;
#502 = ORIENTED_EDGE ( 'NONE', *, *, #672, .F. ) ;
#503 = DIRECTION ( 'NONE',  ( 1.067522139062650425E-16, -0.000000000000000000, 1.000000000000000000 ) ) ;
#504 = PLANE ( 'NONE',  #69 ) ;
#505 = FACE_OUTER_BOUND ( 'NONE', #73, .T. ) ;
#506 = ORIENTED_EDGE ( 'NONE', *, *, #157, .F. ) ;
#507 = EDGE_CURVE ( 'NONE', #316, #348, #442, .T. ) ;
#508 = ORIENTED_EDGE ( 'NONE', *, *, #306, .F. ) ;
#509 = AXIS2_PLACEMENT_3D ( 'NONE', #433, #588, #358 ) ;
#510 = DIRECTION ( 'NONE',  ( -2.135044278125300850E-16, 0.000000000000000000, -1.000000000000000000 ) ) ;
#511 = DIRECTION ( 'NONE',  ( -1.000000000000000000, 0.000000000000000000, -1.110223024625155436E-14 ) ) ;
#512 = ORIENTED_EDGE ( 'NONE', *, *, #994, .T. ) ;
#513 = VERTEX_POINT ( 'NONE', #929 ) ;
#514 = AXIS2_PLACEMENT_3D ( 'NONE', #960, #286, #130 ) ;
#515 = EDGE_CURVE ( 'NONE', #178, #316, #466, .T. ) ;
#516 = ORIENTED_EDGE ( 'NONE', *, *, #549, .T. ) ;
#517 = EDGE_CURVE ( 'NONE', #319, #581, #161, .T. ) ;
#518 = PERSON_AND_ORGANIZATION ( #46, #533 ) ;
#519 = ORIENTED_EDGE ( 'NONE', *, *, #706, .F. ) ;
#520 = CARTESIAN_POINT ( 'NONE',  ( -309.2699999999999250, 356.9289321881344677, 249.9999999999999432 ) ) ;
#521 = ADVANCED_FACE ( 'NONE', ( #77 ), #390, .F. ) ;
#522 = DIRECTION ( 'NONE',  ( 0.000000000000000000, 0.000000000000000000, 1.000000000000000000 ) ) ;
#523 = EDGE_CURVE ( 'NONE', #821, #785, #498, .T. ) ;
#524 = ORIENTED_EDGE ( 'NONE', *, *, #224, .T. ) ;
#525 = COORDINATED_UNIVERSAL_TIME_OFFSET ( 1, 0, .AHEAD. ) ;
#526 = EDGE_CURVE ( 'NONE', #421, #827, #169, .T. ) ;
#527 = AXIS2_PLACEMENT_3D ( 'NONE', #114, #727, #965 ) ;
#528 = VERTEX_POINT ( 'NONE', #779 ) ;
#529 = AXIS2_PLACEMENT_3D ( 'NONE', #36, #397, #259 ) ;
#530 = LINE ( 'NONE', #848, #799 ) ;
#531 = CARTESIAN_POINT ( 'NONE',  ( -319.2700000000000955, 5.000000000000004441, -255.0000000000000568 ) ) ;
#532 = FACE_OUTER_BOUND ( 'NONE', #373, .T. ) ;
#533 = ORGANIZATION ( 'UNSPECIFIED', 'UNSPECIFIED', '' ) ;
#534 = CARTESIAN_POINT ( 'NONE',  ( -314.2699999999999818, 354.0000000000000000, 254.9999999999999432 ) ) ;
#535 = ORIENTED_EDGE ( 'NONE', *, *, #294, .T. ) ;
#536 = CIRCLE ( 'NONE', #713, 5.000000000000004441 ) ;
#537 = CARTESIAN_POINT ( 'NONE',  ( -309.2700000000000955, 10.00000000000000000, -240.0000000000000568 ) ) ;
#538 = DIRECTION ( 'NONE',  ( -1.000000000000000000, 1.110223024625155436E-14, -0.000000000000000000 ) ) ;
#539 = ADVANCED_FACE ( 'NONE', ( #702 ), #323, .T. ) ;
#540 = AXIS2_PLACEMENT_3D ( 'NONE', #309, #168, #227 ) ;
#541 = CARTESIAN_POINT ( 'NONE',  ( -299.2700000000000955, 10.00000000000000000, -240.0000000000000568 ) ) ;
#542 = EDGE_CURVE ( 'NONE', #357, #178, #957, .T. ) ;
#543 = DIRECTION ( 'NONE',  ( 1.000000000000000000, -0.000000000000000000, 0.000000000000000000 ) ) ;
#544 = ORIENTED_EDGE ( 'NONE', *, *, #725, .F. ) ;
#545 = DIRECTION ( 'NONE',  ( -0.000000000000000000, 1.000000000000000000, 0.000000000000000000 ) ) ;
#546 = PERSON_AND_ORGANIZATION_ROLE ( 'creator' ) ;
#547 = CARTESIAN_POINT ( 'NONE',  ( -314.2699999999999818, 5.000000000000004441, 254.9999999999999432 ) ) ;
#548 = EDGE_CURVE ( 'NONE', #743, #421, #707, .T. ) ;
#549 = EDGE_CURVE ( 'NONE', #513, #355, #20, .T. ) ;
#550 = ORIENTED_EDGE ( 'NONE', *, *, #739, .T. ) ;
#551 = DIRECTION ( 'NONE',  ( -1.000000000000000000, 0.000000000000000000, 0.000000000000000000 ) ) ;
#552 = CARTESIAN_POINT ( 'NONE',  ( -299.2700000000000387, 20.00000000000000000, 6.389547011145589100E-14 ) ) ;
#553 = VERTEX_POINT ( 'NONE', #647 ) ;
#554 = DIRECTION ( 'NONE',  ( 0.000000000000000000, -1.000000000000000000, 0.000000000000000000 ) ) ;
#555 = ADVANCED_FACE ( 'NONE', ( #637 ), #90, .F. ) ;
#556 = VECTOR ( 'NONE', #16, 1000.000000000000000 ) ;
#557 = CARTESIAN_POINT ( 'NONE',  ( 309.2699999999999250, 356.9289321881344677, 249.9999999999999432 ) ) ;
#558 = CARTESIAN_POINT ( 'NONE',  ( 299.2699999999999818, 10.00000000000000000, 239.9999999999999432 ) ) ;
#559 = ORIENTED_EDGE ( 'NONE', *, *, #265, .F. ) ;
#560 =( BOUNDED_CURVE ( )  B_SPLINE_CURVE ( 3, ( #198, #557, #481, #788 ),
 .UNSPECIFIED., .F., .T. ) 
 B_SPLINE_CURVE_WITH_KNOTS ( ( 4, 4 ),
 ( 3.141592653589793116, 4.712388980384689674 ),
 .UNSPECIFIED. ) 
 CURVE ( )  GEOMETRIC_REPRESENTATION_ITEM ( )  RATIONAL_B_SPLINE_CURVE ( ( 1.000000000000000000, 0.8047378541243649375, 0.8047378541243649375, 1.000000000000000000 ) ) 
 REPRESENTATION_ITEM ( '' )  );
#561 = DIRECTION ( 'NONE',  ( 0.000000000000000000, 0.000000000000000000, -1.000000000000000000 ) ) ;
#562 = CARTESIAN_POINT ( 'NONE',  ( -319.2700000000000955, 354.0000000000000000, -260.0000000000000568 ) ) ;
#563 = ORIENTED_EDGE ( 'NONE', *, *, #300, .F. ) ;
#564 = VECTOR ( 'NONE', #757, 1000.000000000000000 ) ;
#565 = AXIS2_PLACEMENT_3D ( 'NONE', #955, #554, #176 ) ;
#566 = PLANE ( 'NONE',  #892 ) ;
#567 = CARTESIAN_POINT ( 'NONE',  ( 314.2699999999998681, 354.0000000000000000, -260.0000000000000568 ) ) ;
#568 = DIRECTION ( 'NONE',  ( 1.067522139062650425E-16, -0.000000000000000000, 1.000000000000000000 ) ) ;
#569 = FACE_OUTER_BOUND ( 'NONE', #740, .T. ) ;
#570 = CARTESIAN_POINT ( 'NONE',  ( 314.2699999999998681, 359.0000000000000000, -255.0000000000000568 ) ) ;
#571 = CYLINDRICAL_SURFACE ( 'NONE', #437, 5.000000000000004441 ) ;
#572 = VECTOR ( 'NONE', #240, 1000.000000000000000 ) ;
#573 = CARTESIAN_POINT ( 'NONE',  ( -319.2699999999999818, 354.0000000000000000, 249.9999999999999432 ) ) ;
#574 = DIRECTION ( 'NONE',  ( 0.000000000000000000, 0.000000000000000000, 1.000000000000000000 ) ) ;
#575 = CARTESIAN_POINT ( 'NONE',  ( 314.2699999999999250, 359.0000000000000000, 254.9999999999999432 ) ) ;
#576 = VECTOR ( 'NONE', #173, 1000.000000000000000 ) ;
#577 = DIRECTION ( 'NONE',  ( 0.000000000000000000, 0.000000000000000000, -1.000000000000000000 ) ) ;
#578 = CARTESIAN_POINT ( 'NONE',  ( 299.2699999999999250, 10.00000000000000000, -240.0000000000000568 ) ) ;
#579 = DIRECTION ( 'NONE',  ( 0.000000000000000000, 0.000000000000000000, 1.000000000000000000 ) ) ;
#580 = EDGE_CURVE ( 'NONE', #680, #355, #88, .T. ) ;
#581 = VERTEX_POINT ( 'NONE', #945 ) ;
#582 = VERTEX_POINT ( 'NONE', #575 ) ;
#583 = FACE_OUTER_BOUND ( 'NONE', #883, .T. ) ;
#584 = EDGE_CURVE ( 'NONE', #117, #582, #560, .T. ) ;
#585 = ORIENTED_EDGE ( 'NONE', *, *, #79, .F. ) ;
#586 = ORIENTED_EDGE ( 'NONE', *, *, #894, .T. ) ;
#587 = EDGE_LOOP ( 'NONE', ( #185, #291, #472, #278 ) ) ;
#588 = DIRECTION ( 'NONE',  ( 0.000000000000000000, 0.000000000000000000, 1.000000000000000000 ) ) ;
#589 = AXIS2_PLACEMENT_3D ( 'NONE', #203, #182, #510 ) ;
#590 = ORIENTED_EDGE ( 'NONE', *, *, #733, .F. ) ;
#591 = EDGE_CURVE ( 'NONE', #867, #821, #931, .T. ) ;
#592 = COORDINATED_UNIVERSAL_TIME_OFFSET ( 1, 0, .AHEAD. ) ;
#593 = VERTEX_POINT ( 'NONE', #403 ) ;
#594 = PERSON_AND_ORGANIZATION ( #46, #533 ) ;
#595 = LINE ( 'NONE', #72, #465 ) ;
#596 = ORIENTED_EDGE ( 'NONE', *, *, #43, .T. ) ;
#597 = DIRECTION ( 'NONE',  ( 1.000000000000000000, 0.000000000000000000, 0.000000000000000000 ) ) ;
#598 = LINE ( 'NONE', #140, #181 ) ;
#599 = AXIS2_PLACEMENT_3D ( 'NONE', #5, #693, #162 ) ;
#600 = DIRECTION ( 'NONE',  ( -1.000000000000000000, 0.000000000000000000, 2.135044278125291482E-16 ) ) ;
#601 = EDGE_LOOP ( 'NONE', ( #449, #165, #331, #132 ) ) ;
#602 = ORIENTED_EDGE ( 'NONE', *, *, #951, .F. ) ;
#603 = DIRECTION ( 'NONE',  ( -0.000000000000000000, 1.000000000000000000, -0.000000000000000000 ) ) ;
#604 = ORIENTED_EDGE ( 'NONE', *, *, #126, .T. ) ;
#605 = ORIENTED_EDGE ( 'NONE', *, *, #660, .T. ) ;
#606 = CARTESIAN_POINT ( 'NONE',  ( 309.2699999999999250, 20.00000000000000000, 249.9999999999999432 ) ) ;
#607 = CARTESIAN_POINT ( 'NONE',  ( -319.2699999999999818, 5.000000000000004441, 254.9999999999999432 ) ) ;
#608 = VECTOR ( 'NONE', #645, 1000.000000000000000 ) ;
#609 = ADVANCED_FACE ( 'NONE', ( #714 ), #632, .T. ) ;
#610 = CARTESIAN_POINT ( 'NONE',  ( -319.2700000000000955, 5.000000000000004441, -260.0000000000000568 ) ) ;
#611 = DIRECTION ( 'NONE',  ( 0.000000000000000000, 1.000000000000000000, 0.000000000000000000 ) ) ;
#612 = ORIENTED_EDGE ( 'NONE', *, *, #584, .T. ) ;
#613 = ADVANCED_FACE ( 'NONE', ( #30 ), #333, .T. ) ;
#614 = VECTOR ( 'NONE', #764, 1000.000000000000000 ) ;
#615 = CARTESIAN_POINT ( 'NONE',  ( 309.2699999999999250, 14.14213562373096167, 249.9999999999999432 ) ) ;
#616 = LINE ( 'NONE', #71, #745 ) ;
#617 = CARTESIAN_POINT ( 'NONE',  ( 319.2699999999999250, 359.0000000000000000, 254.9999999999999432 ) ) ;
#618 = VECTOR ( 'NONE', #184, 1000.000000000000000 ) ;
#619 = CARTESIAN_POINT ( 'NONE',  ( -314.2700000000000955, 5.000000000000004441, -255.0000000000000568 ) ) ;
#620 = EDGE_CURVE ( 'NONE', #582, #962, #105, .T. ) ;
#621 = DIRECTION ( 'NONE',  ( 1.067522139062650425E-16, 0.000000000000000000, 1.000000000000000000 ) ) ;
#622 = VERTEX_POINT ( 'NONE', #26 ) ;
#623 =( BOUNDED_CURVE ( )  B_SPLINE_CURVE ( 3, ( #351, #435, #520, #653 ),
 .UNSPECIFIED., .F., .F. ) 
 B_SPLINE_CURVE_WITH_KNOTS ( ( 4, 4 ),
 ( 1.570796326794896558, 3.141592653589793116 ),
 .UNSPECIFIED. ) 
 CURVE ( )  GEOMETRIC_REPRESENTATION_ITEM ( )  RATIONAL_B_SPLINE_CURVE ( ( 1.000000000000000000, 0.8047378541243649375, 0.8047378541243649375, 1.000000000000000000 ) ) 
 REPRESENTATION_ITEM ( '' )  );
#624 = CARTESIAN_POINT ( 'NONE',  ( 314.2699999999998681, 354.0000000000000000, -260.0000000000000568 ) ) ;
#625 = VERTEX_POINT ( 'NONE', #873 ) ;
#626 = FACE_OUTER_BOUND ( 'NONE', #737, .T. ) ;
#627 = CIRCLE ( 'NONE', #895, 5.000000000000004441 ) ;
#628 = DIRECTION ( 'NONE',  ( -2.135044278125300850E-16, 0.000000000000000000, -1.000000000000000000 ) ) ;
#629 = ORIENTED_EDGE ( 'NONE', *, *, #515, .T. ) ;
#630 = ORIENTED_EDGE ( 'NONE', *, *, #755, .T. ) ;
#631 = LINE ( 'NONE', #573, #175 ) ;
#632 = SPHERICAL_SURFACE ( 'NONE', #998, 5.000000000000000000 ) ;
#633 = FACE_OUTER_BOUND ( 'NONE', #28, .T. ) ;
#634 = DIRECTION ( 'NONE',  ( 0.000000000000000000, 0.000000000000000000, -1.000000000000000000 ) ) ;
#635 = ORIENTED_EDGE ( 'NONE', *, *, #378, .F. ) ;
#636 = LINE ( 'NONE', #475, #423 ) ;
#637 = FACE_OUTER_BOUND ( 'NONE', #320, .T. ) ;
#638 = DIRECTION ( 'NONE',  ( 0.000000000000000000, 0.000000000000000000, 1.000000000000000000 ) ) ;
#639 = CARTESIAN_POINT ( 'NONE',  ( -319.2700000000000955, 354.0000000000000000, -250.0000000000000568 ) ) ;
#640 = EDGE_LOOP ( 'NONE', ( #506, #605, #116 ) ) ;
#641 = DESIGN_CONTEXT ( 'detailed design', #188, 'design' ) ;
#642 = CIRCLE ( 'NONE', #599, 5.000000000000004441 ) ;
#643 = ORIENTED_EDGE ( 'NONE', *, *, #751, .T. ) ;
#644 = DIRECTION ( 'NONE',  ( -2.135044278125300850E-16, 0.000000000000000000, -1.000000000000000000 ) ) ;
#645 = DIRECTION ( 'NONE',  ( -1.000000000000000000, 0.000000000000000000, 0.000000000000000000 ) ) ;
#646 = ADVANCED_FACE ( 'NONE', ( #569 ), #102, .T. ) ;
#647 = CARTESIAN_POINT ( 'NONE',  ( 309.2699999999999250, 20.00000000000001776, 249.9999999999999432 ) ) ;
#648 = CARTESIAN_POINT ( 'NONE',  ( -314.2699999999999818, 5.000000000000000000, 254.9999999999999432 ) ) ;
#649 = ORIENTED_EDGE ( 'NONE', *, *, #549, .F. ) ;
#650 = AXIS2_PLACEMENT_3D ( 'NONE', #668, #273, #987 ) ;
#651 = EDGE_LOOP ( 'NONE', ( #665, #391, #590, #710 ) ) ;
#652 = ORIENTED_EDGE ( 'NONE', *, *, #620, .T. ) ;
#653 = CARTESIAN_POINT ( 'NONE',  ( -309.2699999999999818, 354.0000000000000000, 249.9999999999999432 ) ) ;
#654 = VECTOR ( 'NONE', #644, 1000.000000000000000 ) ;
#655 = DIRECTION ( 'NONE',  ( 0.000000000000000000, 0.000000000000000000, 1.000000000000000000 ) ) ;
#656 = EDGE_LOOP ( 'NONE', ( #138, #179, #206, #652 ) ) ;
#657 = ORIENTED_EDGE ( 'NONE', *, *, #55, .T. ) ;
#658 = DIRECTION ( 'NONE',  ( 1.000000000000000000, -0.000000000000000000, -0.000000000000000000 ) ) ;
#659 = VERTEX_POINT ( 'NONE', #191 ) ;
#660 = EDGE_CURVE ( 'NONE', #434, #856, #830, .T. ) ;
#661 = ORIENTED_EDGE ( 'NONE', *, *, #430, .F. ) ;
#662 = APPROVAL_STATUS ( 'not_yet_approved' ) ;
#663 = CIRCLE ( 'NONE', #376, 5.000000000000004441 ) ;
#664 = ADVANCED_FACE ( 'NONE', ( #633 ), #413, .F. ) ;
#665 = ORIENTED_EDGE ( 'NONE', *, *, #306, .T. ) ;
#666 = AXIS2_PLACEMENT_3D ( 'NONE', #952, #880, #789 ) ;
#667 = ORIENTED_EDGE ( 'NONE', *, *, #361, .T. ) ;
#668 = CARTESIAN_POINT ( 'NONE',  ( 314.2699999999999250, 354.0000000000000000, -255.0000000000000568 ) ) ;
#669 =( LENGTH_UNIT ( ) NAMED_UNIT ( * ) SI_UNIT ( .MILLI., .METRE. ) );
#670 = CARTESIAN_POINT ( 'NONE',  ( 319.2699999999998681, 354.0000000000000000, -255.0000000000000568 ) ) ;
#671 = DIRECTION ( 'NONE',  ( 0.000000000000000000, 0.000000000000000000, -1.000000000000000000 ) ) ;
#672 = EDGE_CURVE ( 'NONE', #593, #856, #715, .T. ) ;
#673 = EDGE_CURVE ( 'NONE', #785, #659, #490, .T. ) ;
#674 = CYLINDRICAL_SURFACE ( 'NONE', #129, 5.000000000000004441 ) ;
#675 = DIRECTION ( 'NONE',  ( 0.000000000000000000, 0.000000000000000000, -1.000000000000000000 ) ) ;
#676 = EDGE_LOOP ( 'NONE', ( #225, #516, #524, #604 ) ) ;
#677 = ORIENTED_EDGE ( 'NONE', *, *, #238, .T. ) ;
#678 = DIRECTION ( 'NONE',  ( 0.000000000000000000, 0.000000000000000000, -1.000000000000000000 ) ) ;
#679 = DIRECTION ( 'NONE',  ( -1.000000000000000000, 0.000000000000000000, 1.067522139062650425E-16 ) ) ;
#680 = VERTEX_POINT ( 'NONE', #338 ) ;
#681 = AXIS2_PLACEMENT_3D ( 'NONE', #913, #678, #10 ) ;
#682 = CARTESIAN_POINT ( 'NONE',  ( 314.2699999999998681, 354.0000000000000000, -255.0000000000000568 ) ) ;
#683 = EDGE_CURVE ( 'NONE', #680, #348, #106, .T. ) ;
#684 = DIRECTION ( 'NONE',  ( -1.000000000000000000, -0.000000000000000000, -0.000000000000000000 ) ) ;
#685 = DIRECTION ( 'NONE',  ( -1.000000000000000000, 0.000000000000000000, 0.000000000000000000 ) ) ;
#686 = CARTESIAN_POINT ( 'NONE',  ( 319.2699999999998681, 359.0000000000000000, -255.0000000000000568 ) ) ;
#687 = EDGE_CURVE ( 'NONE', #868, #969, #250, .T. ) ;
#688 = CALENDAR_DATE ( 2026, 21, 5 ) ;
#689 = SPHERICAL_SURFACE ( 'NONE', #971, 5.000000000000000000 ) ;
#690 = AXIS2_PLACEMENT_3D ( 'NONE', #495, #603, #910 ) ;
#691 = AXIS2_PLACEMENT_3D ( 'NONE', #89, #734, #172 ) ;
#692 = DIRECTION ( 'NONE',  ( -0.000000000000000000, 0.000000000000000000, 1.000000000000000000 ) ) ;
#693 = DIRECTION ( 'NONE',  ( -0.000000000000000000, -0.000000000000000000, 1.000000000000000000 ) ) ;
#694 = ORIENTED_EDGE ( 'NONE', *, *, #430, .T. ) ;
#695 = EDGE_CURVE ( 'NONE', #622, #513, #389, .T. ) ;
#696 = APPROVAL_STATUS ( 'not_yet_approved' ) ;
#697 = VECTOR ( 'NONE', #912, 1000.000000000000000 ) ;
#698 = CARTESIAN_POINT ( 'NONE',  ( -309.2700000000000955, 354.0000000000000000, -260.0000000000000568 ) ) ;
#699 = ORIENTED_EDGE ( 'NONE', *, *, #308, .T. ) ;
#700 = VECTOR ( 'NONE', #393, 1000.000000000000000 ) ;
#701 = LINE ( 'NONE', #537, #365 ) ;
#702 = FACE_OUTER_BOUND ( 'NONE', #445, .T. ) ;
#703 = ORIENTED_EDGE ( 'NONE', *, *, #948, .F. ) ;
#704 = ORIENTED_EDGE ( 'NONE', *, *, #145, .T. ) ;
#705 = DIRECTION ( 'NONE',  ( 1.067522139062650425E-16, -0.000000000000000000, 1.000000000000000000 ) ) ;
#706 = EDGE_CURVE ( 'NONE', #23, #812, #321, .T. ) ;
#707 = LINE ( 'NONE', #346, #412 ) ;
#708 = ORIENTED_EDGE ( 'NONE', *, *, #683, .F. ) ;
#709 = LOCAL_TIME ( 19, 12, 22.00000000000000000, #592 ) ;
#710 = ORIENTED_EDGE ( 'NONE', *, *, #836, .T. ) ;
#711 = DIRECTION ( 'NONE',  ( 1.000000000000000000, -0.000000000000000000, -0.000000000000000000 ) ) ;
#712 = PRODUCT_DEFINITION_SHAPE ( 'NONE', 'NONE',  #804 ) ;
#713 = AXIS2_PLACEMENT_3D ( 'NONE', #807, #424, #634 ) ;
#714 = FACE_OUTER_BOUND ( 'NONE', #640, .T. ) ;
#715 = LINE ( 'NONE', #562, #618 ) ;
#716 = CARTESIAN_POINT ( 'NONE',  ( -319.2699999999999818, 359.0000000000000000, 249.9999999999999432 ) ) ;
#717 = ORIENTED_EDGE ( 'NONE', *, *, #934, .T. ) ;
#718 = DIRECTION ( 'NONE',  ( 0.000000000000000000, 0.000000000000000000, 1.000000000000000000 ) ) ;
#719 = APPLICATION_CONTEXT ( 'configuration controlled 3d designs of mechanical parts and assemblies' ) ;
#720 = EDGE_CURVE ( 'NONE', #659, #528, #12, .T. ) ;
#721 = CARTESIAN_POINT ( 'NONE',  ( -314.2699999999999818, 5.000000000000004441, 259.9999999999999432 ) ) ;
#722 = DIRECTION ( 'NONE',  ( -1.000000000000000000, 0.000000000000000000, 0.000000000000000000 ) ) ;
#723 = FACE_OUTER_BOUND ( 'NONE', #305, .T. ) ;
#724 = ORIENTED_EDGE ( 'NONE', *, *, #974, .F. ) ;
#725 = EDGE_CURVE ( 'NONE', #743, #940, #870, .T. ) ;
#726 = FACE_OUTER_BOUND ( 'NONE', #454, .T. ) ;
#727 = DIRECTION ( 'NONE',  ( 1.067522139062650425E-16, -0.000000000000000000, 1.000000000000000000 ) ) ;
#728 = DIRECTION ( 'NONE',  ( 0.000000000000000000, 0.000000000000000000, -1.000000000000000000 ) ) ;
#729 = DIRECTION ( 'NONE',  ( -1.000000000000000000, -0.000000000000000000, -0.000000000000000000 ) ) ;
#730 = CYLINDRICAL_SURFACE ( 'NONE', #906, 5.000000000000004441 ) ;
#731 = VECTOR ( 'NONE', #924, 1000.000000000000000 ) ;
#732 = LOCAL_TIME ( 19, 12, 22.00000000000000000, #525 ) ;
#733 = EDGE_CURVE ( 'NONE', #812, #940, #837, .T. ) ;
#734 = DIRECTION ( 'NONE',  ( -0.000000000000000000, 0.000000000000000000, -1.000000000000000000 ) ) ;
#735 = LINE ( 'NONE', #44, #99 ) ;
#736 = ORIENTED_EDGE ( 'NONE', *, *, #151, .T. ) ;
#737 = EDGE_LOOP ( 'NONE', ( #841, #889, #207, #661 ) ) ;
#738 = AXIS2_PLACEMENT_3D ( 'NONE', #388, #679, #621 ) ;
#739 = EDGE_CURVE ( 'NONE', #856, #78, #530, .T. ) ;
#740 = EDGE_LOOP ( 'NONE', ( #746, #677, #6 ) ) ;
#741 = FACE_OUTER_BOUND ( 'NONE', #954, .T. ) ;
#742 = DIRECTION ( 'NONE',  ( -1.000000000000000000, 0.000000000000000000, 0.000000000000000000 ) ) ;
#743 = VERTEX_POINT ( 'NONE', #854 ) ;
#744 = APPROVAL_PERSON_ORGANIZATION ( #594, #879, #362 ) ;
#745 = VECTOR ( 'NONE', #384, 1000.000000000000000 ) ;
#746 = ORIENTED_EDGE ( 'NONE', *, *, #367, .F. ) ;
#747 = PERSON_AND_ORGANIZATION ( #46, #533 ) ;
#748 = CYLINDRICAL_SURFACE ( 'NONE', #217, 5.000000000000004441 ) ;
#749 = VECTOR ( 'NONE', #469, 1000.000000000000000 ) ;
#750 = VERTEX_POINT ( 'NONE', #70 ) ;
#751 = EDGE_CURVE ( 'NONE', #827, #969, #701, .T. ) ;
#752 = DIRECTION ( 'NONE',  ( 1.000000000000000000, 0.000000000000000000, 0.000000000000000000 ) ) ;
#753 = CARTESIAN_POINT ( 'NONE',  ( -314.2700000000000387, 354.0000000000000000, 6.709803652864383867E-14 ) ) ;
#754 = EDGE_LOOP ( 'NONE', ( #32, #374, #508, #467 ) ) ;
#755 = EDGE_CURVE ( 'NONE', #659, #178, #61, .T. ) ;
#756 = VECTOR ( 'NONE', #711, 1000.000000000000000 ) ;
#757 = DIRECTION ( 'NONE',  ( 1.000000000000000000, -0.000000000000000000, -0.000000000000000000 ) ) ;
#758 = CARTESIAN_POINT ( 'NONE',  ( 0.000000000000000000, 20.00000000000000000, 239.9999999999999432 ) ) ;
#759 = DIRECTION ( 'NONE',  ( -0.000000000000000000, 1.000000000000000000, -0.000000000000000000 ) ) ;
#760 = VECTOR ( 'NONE', #543, 1000.000000000000000 ) ;
#761 = PERSON_AND_ORGANIZATION_ROLE ( 'classification_officer' ) ;
#762 = FACE_OUTER_BOUND ( 'NONE', #786, .T. ) ;
#763 = EDGE_CURVE ( 'NONE', #110, #680, #277, .T. ) ;
#764 = DIRECTION ( 'NONE',  ( -0.000000000000000000, 1.000000000000000000, -0.000000000000000000 ) ) ;
#765 = CARTESIAN_POINT ( 'NONE',  ( -299.2699999999999818, 10.00000000000000000, 249.9999999999999432 ) ) ;
#766 = ADVANCED_FACE ( 'NONE', ( #762 ), #1, .T. ) ;
#767 = ORIENTED_EDGE ( 'NONE', *, *, #223, .T. ) ;
#768 = COORDINATED_UNIVERSAL_TIME_OFFSET ( 1, 0, .AHEAD. ) ;
#769 = CARTESIAN_POINT ( 'NONE',  ( 319.2699999999999250, 5.000000000000004441, 254.9999999999999432 ) ) ;
#770 = DIRECTION ( 'NONE',  ( -1.000000000000000000, -0.000000000000000000, -0.000000000000000000 ) ) ;
#771 = DIRECTION ( 'NONE',  ( 0.000000000000000000, -0.000000000000000000, 1.000000000000000000 ) ) ;
#772 = EDGE_CURVE ( 'NONE', #316, #78, #318, .T. ) ;
#773 = EDGE_LOOP ( 'NONE', ( #502, #717, #120, #123 ) ) ;
#774 = CARTESIAN_POINT ( 'NONE',  ( -309.2699999999999818, 354.0000000000000000, 249.9999999999999432 ) ) ;
#775 = APPROVAL_PERSON_ORGANIZATION ( #890, #50, #813 ) ;
#776 = ORIENTED_EDGE ( 'NONE', *, *, #407, .F. ) ;
#777 = AXIS2_PLACEMENT_3D ( 'NONE', #212, #275, #742 ) ;
#778 = CARTESIAN_POINT ( 'NONE',  ( -309.2700000000000955, 14.14213562373095989, -250.0000000000001137 ) ) ;
#779 = CARTESIAN_POINT ( 'NONE',  ( 314.2699999999998681, 0.000000000000000000, -255.0000000000000568 ) ) ;
#780 = ORIENTED_EDGE ( 'NONE', *, *, #488, .F. ) ;
#781 = VECTOR ( 'NONE', #684, 1000.000000000000000 ) ;
#782 = ADVANCED_FACE ( 'NONE', ( #158 ), #317, .T. ) ;
#783 = DIRECTION ( 'NONE',  ( 0.000000000000000000, -1.000000000000000000, 0.000000000000000000 ) ) ;
#784 = DIRECTION ( 'NONE',  ( 0.000000000000000000, -1.000000000000000000, 0.000000000000000000 ) ) ;
#785 = VERTEX_POINT ( 'NONE', #769 ) ;
#786 = EDGE_LOOP ( 'NONE', ( #796, #708, #817, #780 ) ) ;
#787 = DIRECTION ( 'NONE',  ( -2.135044278125300850E-16, 0.000000000000000000, -1.000000000000000000 ) ) ;
#788 = CARTESIAN_POINT ( 'NONE',  ( 314.2699999999999250, 359.0000000000000000, 254.9999999999999432 ) ) ;
#789 = DIRECTION ( 'NONE',  ( 0.000000000000000000, 0.000000000000000000, -1.000000000000000000 ) ) ;
#790 = FACE_OUTER_BOUND ( 'NONE', #651, .T. ) ;
#791 = ORIENTED_EDGE ( 'NONE', *, *, #400, .T. ) ;
#792 = FACE_OUTER_BOUND ( 'NONE', #93, .T. ) ;
#793 = VECTOR ( 'NONE', #802, 1000.000000000000000 ) ;
#794 = DIRECTION ( 'NONE',  ( 0.000000000000000000, 1.000000000000000000, -0.000000000000000000 ) ) ;
#795 = SPHERICAL_SURFACE ( 'NONE', #363, 5.000000000000000000 ) ;
#796 = ORIENTED_EDGE ( 'NONE', *, *, #284, .F. ) ;
#797 = ADVANCED_FACE ( 'NONE', ( #450 ), #689, .T. ) ;
#798 = CYLINDRICAL_SURFACE ( 'NONE', #438, 5.000000000000004441 ) ;
#799 = VECTOR ( 'NONE', #152, 1000.000000000000000 ) ;
#800 =( BOUNDED_CURVE ( )  B_SPLINE_CURVE ( 3, ( #809, #115, #426, #353 ),
 .UNSPECIFIED., .F., .T. ) 
 B_SPLINE_CURVE_WITH_KNOTS ( ( 4, 4 ),
 ( 1.570796326794896558, 3.141592653589793116 ),
 .UNSPECIFIED. ) 
 CURVE ( )  GEOMETRIC_REPRESENTATION_ITEM ( )  RATIONAL_B_SPLINE_CURVE ( ( 1.000000000000000000, 0.8047378541243649375, 0.8047378541243649375, 1.000000000000000000 ) ) 
 REPRESENTATION_ITEM ( '' )  );
#801 = CARTESIAN_POINT ( 'NONE',  ( 314.2699999999999250, 354.0000000000000000, 254.9999999999999432 ) ) ;
#802 = DIRECTION ( 'NONE',  ( -1.000000000000000000, 0.000000000000000000, -0.000000000000000000 ) ) ;
#803 = CARTESIAN_POINT ( 'NONE',  ( -319.2700000000000955, 354.0000000000000000, -255.0000000000000568 ) ) ;
#804 = PRODUCT_DEFINITION ( 'UNKNOWN', '', #838, #641 ) ;
#805 = ORIENTED_EDGE ( 'NONE', *, *, #322, .T. ) ;
#806 = CARTESIAN_POINT ( 'NONE',  ( -309.2700000000000955, 359.0000000000000000, -260.0000000000000568 ) ) ;
#807 = CARTESIAN_POINT ( 'NONE',  ( 314.2699999999999250, 5.000000000000004441, 254.9999999999999432 ) ) ;
#808 = LINE ( 'NONE', #425, #85 ) ;
#809 = CARTESIAN_POINT ( 'NONE',  ( -314.2700000000000955, 359.0000000000000000, -255.0000000000000568 ) ) ;
#810 = ORIENTED_EDGE ( 'NONE', *, *, #122, .F. ) ;
#811 = CC_DESIGN_APPROVAL ( #879, ( #838 ) ) ;
#812 = VERTEX_POINT ( 'NONE', #774 ) ;
#813 = APPROVAL_ROLE ( '' ) ;
#814 = EDGE_CURVE ( 'NONE', #421, #553, #8, .T. ) ;
#815 = DIRECTION ( 'NONE',  ( -1.000000000000000000, 0.000000000000000000, 0.000000000000000000 ) ) ;
#816 = ORIENTED_EDGE ( 'NONE', *, *, #687, .F. ) ;
#817 = ORIENTED_EDGE ( 'NONE', *, *, #763, .F. ) ;
#818 = LINE ( 'NONE', #53, #81 ) ;
#819 = DATE_AND_TIME ( #978, #285 ) ;
#820 = FACE_OUTER_BOUND ( 'NONE', #773, .T. ) ;
#821 = VERTEX_POINT ( 'NONE', #82 ) ;
#822 = DIRECTION ( 'NONE',  ( 0.000000000000000000, 1.000000000000000000, 0.000000000000000000 ) ) ;
#823 = CALENDAR_DATE ( 2026, 21, 5 ) ;
#824 = FACE_OUTER_BOUND ( 'NONE', #252, .T. ) ;
#825 = ADVANCED_FACE ( 'NONE', ( #377 ), #255, .T. ) ;
#826 = CIRCLE ( 'NONE', #239, 5.000000000000004441 ) ;
#827 = VERTEX_POINT ( 'NONE', #859 ) ;
#828 =( NAMED_UNIT ( * ) PLANE_ANGLE_UNIT ( ) SI_UNIT ( $, .RADIAN. ) );
#829 = CARTESIAN_POINT ( 'NONE',  ( -319.2699999999999818, 359.0000000000000000, 254.9999999999999432 ) ) ;
#830 = CIRCLE ( 'NONE', #257, 5.000000000000004441 ) ;
#831 = DIRECTION ( 'NONE',  ( 1.000000000000000000, -0.000000000000000000, -0.000000000000000000 ) ) ;
#832 = CARTESIAN_POINT ( 'NONE',  ( -305.1278643762692013, 10.00000000000000533, -245.8578643762691343 ) ) ;
#833 = DIRECTION ( 'NONE',  ( 1.000000000000000000, 0.000000000000000000, 0.000000000000000000 ) ) ;
#834 = ORIENTED_EDGE ( 'NONE', *, *, #548, .T. ) ;
#835 = CC_DESIGN_SECURITY_CLASSIFICATION ( #401, ( #838 ) ) ;
#836 = EDGE_CURVE ( 'NONE', #812, #117, #631, .T. ) ;
#837 = LINE ( 'NONE', #232, #700 ) ;
#838 = PRODUCT_DEFINITION_FORMATION_WITH_SPECIFIED_SOURCE ( 'ANY', '', #199, .NOT_KNOWN. ) ;
#839 = LINE ( 'NONE', #372, #564 ) ;
#840 = DIRECTION ( 'NONE',  ( -1.000000000000000000, 0.000000000000000000, 0.000000000000000000 ) ) ;
#841 = ORIENTED_EDGE ( 'NONE', *, *, #223, .F. ) ;
#842 = CIRCLE ( 'NONE', #650, 5.000000000000004441 ) ;
#843 = DATE_TIME_ROLE ( 'classification_date' ) ;
#844 = DIRECTION ( 'NONE',  ( 0.000000000000000000, 0.000000000000000000, -1.000000000000000000 ) ) ;
#845 = CARTESIAN_POINT ( 'NONE',  ( 309.2699999999998681, 359.0000000000000000, -250.0000000000000568 ) ) ;
#846 = DIRECTION ( 'NONE',  ( 0.000000000000000000, 0.000000000000000000, 1.000000000000000000 ) ) ;
#847 = AXIS2_PLACEMENT_3D ( 'NONE', #337, #568, #497 ) ;
#848 = CARTESIAN_POINT ( 'NONE',  ( -319.2700000000000955, 359.0000000000000000, -255.0000000000000568 ) ) ;
#849 = LINE ( 'NONE', #617, #271 ) ;
#850 = ORIENTED_EDGE ( 'NONE', *, *, #994, .F. ) ;
#851 = ORIENTED_EDGE ( 'NONE', *, *, #755, .F. ) ;
#852 = DIRECTION ( 'NONE',  ( 0.000000000000000000, 0.000000000000000000, 1.000000000000000000 ) ) ;
#853 = PERSON_AND_ORGANIZATION_ROLE ( 'design_supplier' ) ;
#854 = CARTESIAN_POINT ( 'NONE',  ( -299.2699999999999818, 10.00000000000000000, 239.9999999999999432 ) ) ;
#855 = CIRCLE ( 'NONE', #64, 5.000000000000004441 ) ;
#856 = VERTEX_POINT ( 'NONE', #336 ) ;
#857 = ADVANCED_FACE ( 'NONE', ( #263 ), #332, .T. ) ;
#858 = ADVANCED_FACE ( 'NONE', ( #792 ), #33, .T. ) ;
#859 = CARTESIAN_POINT ( 'NONE',  ( 299.2699999999999250, 10.00000000000000000, -240.0000000000000568 ) ) ;
#860 = ORIENTED_EDGE ( 'NONE', *, *, #112, .T. ) ;
#861 = PRODUCT_RELATED_PRODUCT_CATEGORY ( 'detail', '', ( #199 ) ) ;
#862 = AXIS2_PLACEMENT_3D ( 'NONE', #877, #486, #326 ) ;
#863 = DIRECTION ( 'NONE',  ( -1.000000000000000000, 0.000000000000000000, -0.000000000000000000 ) ) ;
#864 = MANIFOLD_SOLID_BREP ( 'Fillet2', #35 ) ;
#865 = CARTESIAN_POINT ( 'NONE',  ( -314.2699999999999818, 359.0000000000000000, 259.9999999999999432 ) ) ;
#866 = CARTESIAN_POINT ( 'NONE',  ( 309.2699999999998681, 354.0000000000000000, -250.0000000000000568 ) ) ;
#867 = VERTEX_POINT ( 'NONE', #187 ) ;
#868 = VERTEX_POINT ( 'NONE', #42 ) ;
#869 = CYLINDRICAL_SURFACE ( 'NONE', #565, 5.000000000000004441 ) ;
#870 =( BOUNDED_CURVE ( )  B_SPLINE_CURVE ( 3, ( #933, #382, #86, #919 ),
 .UNSPECIFIED., .F., .F. ) 
 B_SPLINE_CURVE_WITH_KNOTS ( ( 4, 4 ),
 ( 1.570796326794896558, 3.141592653589794892 ),
 .UNSPECIFIED. ) 
 CURVE ( )  GEOMETRIC_REPRESENTATION_ITEM ( )  RATIONAL_B_SPLINE_CURVE ( ( 1.000000000000000000, 0.8047378541243646044, 0.8047378541243646044, 1.000000000000000000 ) ) 
 REPRESENTATION_ITEM ( '' )  );
#871 = ADVANCED_FACE ( 'NONE', ( #395 ), #798, .T. ) ;
#872 = AXIS2_PLACEMENT_3D ( 'NONE', #803, #973, #655 ) ;
#873 = CARTESIAN_POINT ( 'NONE',  ( -314.2700000000000955, 359.0000000000000000, -255.0000000000000568 ) ) ;
#874 = CARTESIAN_POINT ( 'NONE',  ( -314.2700000000000955, 354.0000000000000000, -260.0000000000000568 ) ) ;
#875 = AXIS2_PLACEMENT_3D ( 'NONE', #417, #783, #113 ) ;
#876 = ORIENTED_EDGE ( 'NONE', *, *, #488, .T. ) ;
#877 = CARTESIAN_POINT ( 'NONE',  ( 309.2699999999998681, 359.0000000000000000, -260.0000000000000568 ) ) ;
#878 = AXIS2_PLACEMENT_3D ( 'NONE', #298, #915, #833 ) ;
#879 = APPROVAL ( #128, 'UNSPECIFIED' ) ;
#880 = DIRECTION ( 'NONE',  ( -0.000000000000000000, 1.000000000000000000, 0.000000000000000000 ) ) ;
#881 = DIRECTION ( 'NONE',  ( 1.000000000000000000, 0.000000000000000000, 0.000000000000000000 ) ) ;
#882 = CARTESIAN_POINT ( 'NONE',  ( 305.1278643762689740, 10.00000000000000533, -245.8578643762691343 ) ) ;
#883 = EDGE_LOOP ( 'NONE', ( #45, #47, #535, #287 ) ) ;
#884 = DIRECTION ( 'NONE',  ( -1.000000000000000000, 0.000000000000000000, 0.000000000000000000 ) ) ;
#885 = AXIS2_PLACEMENT_3D ( 'NONE', #619, #146, #844 ) ;
#886 = DIRECTION ( 'NONE',  ( 1.000000000000000000, -0.000000000000000000, 0.000000000000000000 ) ) ;
#887 = CARTESIAN_POINT ( 'NONE',  ( -309.2700000000000955, 354.0000000000000000, -250.0000000000000568 ) ) ;
#888 = EDGE_LOOP ( 'NONE', ( #850, #694, #137, #478 ) ) ;
#889 = ORIENTED_EDGE ( 'NONE', *, *, #695, .F. ) ;
#890 = PERSON_AND_ORGANIZATION ( #46, #533 ) ;
#891 = ORIENTED_EDGE ( 'NONE', *, *, #322, .F. ) ;
#892 = AXIS2_PLACEMENT_3D ( 'NONE', #806, #479, #787 ) ;
#893 = EDGE_LOOP ( 'NONE', ( #432, #900, #334, #11 ) ) ;
#894 = EDGE_CURVE ( 'NONE', #528, #821, #258, .T. ) ;
#895 = AXIS2_PLACEMENT_3D ( 'NONE', #34, #345, #574 ) ;
#896 = CARTESIAN_POINT ( 'NONE',  ( 314.2699999999999250, 359.0000000000000000, -260.0000000000000568 ) ) ;
#897 = ORIENTED_EDGE ( 'NONE', *, *, #407, .T. ) ;
#898 = DIRECTION ( 'NONE',  ( 1.110223024625155594E-14, 0.000000000000000000, -1.000000000000000000 ) ) ;
#899 =( BOUNDED_CURVE ( )  B_SPLINE_CURVE ( 3, ( #866, #280, #177, #570 ),
 .UNSPECIFIED., .F., .F. ) 
 B_SPLINE_CURVE_WITH_KNOTS ( ( 4, 4 ),
 ( 0.000000000000000000, 1.570796326794896558 ),
 .UNSPECIFIED. ) 
 CURVE ( )  GEOMETRIC_REPRESENTATION_ITEM ( )  RATIONAL_B_SPLINE_CURVE ( ( 1.000000000000000000, 0.8047378541243649375, 0.8047378541243649375, 1.000000000000000000 ) ) 
 REPRESENTATION_ITEM ( '' )  );
#900 = ORIENTED_EDGE ( 'NONE', *, *, #894, .F. ) ;
#901 = PERSON_AND_ORGANIZATION_ROLE ( 'creator' ) ;
#902 = ADVANCED_FACE ( 'NONE', ( #626 ), #422, .T. ) ;
#903 = DIRECTION ( 'NONE',  ( -2.135044278125300850E-16, 0.000000000000000000, -1.000000000000000000 ) ) ;
#904 =( BOUNDED_CURVE ( )  B_SPLINE_CURVE ( 3, ( #201, #500, #882, #578 ),
 .UNSPECIFIED., .F., .F. ) 
 B_SPLINE_CURVE_WITH_KNOTS ( ( 4, 4 ),
 ( 3.141592653589791340, 4.712388980384689674 ),
 .UNSPECIFIED. ) 
 CURVE ( )  GEOMETRIC_REPRESENTATION_ITEM ( )  RATIONAL_B_SPLINE_CURVE ( ( 1.000000000000000000, 0.8047378541243646044, 0.8047378541243646044, 1.000000000000000000 ) ) 
 REPRESENTATION_ITEM ( '' )  );
#905 = CARTESIAN_POINT ( 'NONE',  ( -319.2699999999999818, 5.000000000000004441, 254.9999999999999432 ) ) ;
#906 = AXIS2_PLACEMENT_3D ( 'NONE', #40, #968, #276 ) ;
#907 = ORIENTED_EDGE ( 'NONE', *, *, #392, .F. ) ;
#908 = FACE_OUTER_BOUND ( 'NONE', #329, .T. ) ;
#909 = APPLICATION_PROTOCOL_DEFINITION ( 'international standard', 'config_control_design', 1994, #188 ) ;
#910 = DIRECTION ( 'NONE',  ( 0.000000000000000000, 0.000000000000000000, -1.000000000000000000 ) ) ;
#911 = CIRCLE ( 'NONE', #330, 5.000000000000004441 ) ;
#912 = DIRECTION ( 'NONE',  ( 1.067522139062650425E-16, -0.000000000000000000, 1.000000000000000000 ) ) ;
#913 = CARTESIAN_POINT ( 'NONE',  ( 314.2699999999998681, 5.000000000000004441, -255.0000000000000568 ) ) ;
#914 = AXIS2_PLACEMENT_3D ( 'NONE', #607, #68, #460 ) ;
#915 = DIRECTION ( 'NONE',  ( 2.135044278125300850E-16, -0.000000000000000000, 1.000000000000000000 ) ) ;
#916 = EDGE_LOOP ( 'NONE', ( #791, #283, #84, #586 ) ) ;
#917 = PERSON_AND_ORGANIZATION ( #46, #533 ) ;
#918 = ADVANCED_FACE ( 'NONE', ( #943 ), #937, .F. ) ;
#919 = CARTESIAN_POINT ( 'NONE',  ( -309.2699999999999818, 20.00000000000001776, 249.9999999999999432 ) ) ;
#920 = DIRECTION ( 'NONE',  ( 1.000000000000000000, 0.000000000000000000, -0.000000000000000000 ) ) ;
#921 = CARTESIAN_POINT ( 'NONE',  ( 314.2699999999998681, 5.000000000000004441, -260.0000000000000568 ) ) ;
#922 = SPHERICAL_SURFACE ( 'NONE', #942, 5.000000000000000000 ) ;
#923 = DIRECTION ( 'NONE',  ( -1.000000000000000000, 0.000000000000000000, 0.000000000000000000 ) ) ;
#924 = DIRECTION ( 'NONE',  ( -0.000000000000000000, 1.000000000000000000, -0.000000000000000000 ) ) ;
#925 = ORIENTED_EDGE ( 'NONE', *, *, #523, .T. ) ;
#926 = VECTOR ( 'NONE', #981, 1000.000000000000000 ) ;
#927 = PERSON_AND_ORGANIZATION ( #46, #533 ) ;
#928 = CARTESIAN_POINT ( 'NONE',  ( 309.2699999999999250, 20.00000000000001776, 249.9999999999999432 ) ) ;
#929 = CARTESIAN_POINT ( 'NONE',  ( -314.2699999999999818, 354.0000000000000000, 259.9999999999999432 ) ) ;
#930 = LINE ( 'NONE', #246, #760 ) ;
#931 = CIRCLE ( 'NONE', #949, 5.000000000000004441 ) ;
#932 = APPROVAL_DATE_TIME ( #375, #230 ) ;
#933 = CARTESIAN_POINT ( 'NONE',  ( -299.2699999999999818, 10.00000000000000000, 239.9999999999999432 ) ) ;
#934 = EDGE_CURVE ( 'NONE', #593, #121, #938, .T. ) ;
#935 = EDGE_CURVE ( 'NONE', #174, #962, #636, .T. ) ;
#936 = ORIENTED_EDGE ( 'NONE', *, *, #591, .T. ) ;
#937 = PLANE ( 'NONE',  #3 ) ;
#938 = CIRCLE ( 'NONE', #691, 5.000000000000004441 ) ;
#939 = ADVANCED_FACE ( 'NONE', ( #107 ), #869, .T. ) ;
#940 = VERTEX_POINT ( 'NONE', #180 ) ;
#941 = UNCERTAINTY_MEASURE_WITH_UNIT (LENGTH_MEASURE( 1.000000000000000082E-05 ), #669, 'distance_accuracy_value', 'NONE');
#942 = AXIS2_PLACEMENT_3D ( 'NONE', #74, #39, #210 ) ;
#943 = FACE_OUTER_BOUND ( 'NONE', #676, .T. ) ;
#944 = ADVANCED_FACE ( 'NONE', ( #726 ), #566, .T. ) ;
#945 = CARTESIAN_POINT ( 'NONE',  ( 309.2699999999998681, 20.00000000000001776, -250.0000000000000568 ) ) ;
#946 = ORIENTED_EDGE ( 'NONE', *, *, #238, .F. ) ;
#947 = ORIENTED_EDGE ( 'NONE', *, *, #312, .T. ) ;
#948 = EDGE_CURVE ( 'NONE', #750, #625, #94, .T. ) ;
#949 = AXIS2_PLACEMENT_3D ( 'NONE', #96, #267, #183 ) ;
#950 = DIRECTION ( 'NONE',  ( 1.000000000000000000, -0.000000000000000000, 0.000000000000000000 ) ) ;
#951 = EDGE_CURVE ( 'NONE', #348, #528, #494, .T. ) ;
#952 = CARTESIAN_POINT ( 'NONE',  ( 314.2699999999998681, 354.0000000000000000, -255.0000000000000568 ) ) ;
#953 = CARTESIAN_POINT ( 'NONE',  ( 319.2699999999999250, 359.0000000000000000, 254.9999999999999432 ) ) ;
#954 = EDGE_LOOP ( 'NONE', ( #66, #767, #492 ) ) ;
#955 = CARTESIAN_POINT ( 'NONE',  ( 314.2699999999998681, 359.0000000000000000, -255.0000000000000568 ) ) ;
#956 = VECTOR ( 'NONE', #216, 1000.000000000000000 ) ;
#957 = LINE ( 'NONE', #190, #576 ) ;
#958 = DIRECTION ( 'NONE',  ( 0.000000000000000000, 0.000000000000000000, 1.000000000000000000 ) ) ;
#959 = LINE ( 'NONE', #269, #221 ) ;
#960 = CARTESIAN_POINT ( 'NONE',  ( 0.000000000000000000, 20.00000000000000000, -240.0000000000000568 ) ) ;
#961 = ORIENTED_EDGE ( 'NONE', *, *, #673, .T. ) ;
#962 = VERTEX_POINT ( 'NONE', #344 ) ;
#963 = CARTESIAN_POINT ( 'NONE',  ( -299.2700000000000955, 10.00000000000000000, -240.0000000000000568 ) ) ;
#964 = AXIS2_PLACEMENT_3D ( 'NONE', #139, #60, #108 ) ;
#965 = DIRECTION ( 'NONE',  ( 1.000000000000000000, 0.000000000000000000, -1.067522139062651904E-16 ) ) ;
#966 = DIRECTION ( 'NONE',  ( -1.000000000000000000, 0.000000000000000000, 2.135044278125303808E-16 ) ) ;
#967 = DIRECTION ( 'NONE',  ( 1.000000000000000000, 0.000000000000000000, 0.000000000000000000 ) ) ;
#968 = DIRECTION ( 'NONE',  ( 0.000000000000000000, -1.000000000000000000, 0.000000000000000000 ) ) ;
#969 = VERTEX_POINT ( 'NONE', #963 ) ;
#970 = ORIENTED_EDGE ( 'NONE', *, *, #983, .T. ) ;
#971 = AXIS2_PLACEMENT_3D ( 'NONE', #4, #243, #301 ) ;
#972 = CARTESIAN_POINT ( 'NONE',  ( -314.2700000000000955, 5.000000000000004441, -260.0000000000000568 ) ) ;
#973 = DIRECTION ( 'NONE',  ( -1.000000000000000000, 0.000000000000000000, 0.000000000000000000 ) ) ;
#974 = EDGE_CURVE ( 'NONE', #117, #319, #598, .T. ) ;
#975 = ORIENTED_EDGE ( 'NONE', *, *, #436, .T. ) ;
#976 = ORIENTED_EDGE ( 'NONE', *, *, #720, .T. ) ;
#977 = ORIENTED_EDGE ( 'NONE', *, *, #507, .F. ) ;
#978 = CALENDAR_DATE ( 2026, 21, 5 ) ;
#979 = AXIS2_PLACEMENT_3D ( 'NONE', #716, #728, #37 ) ;
#980 = ADVANCED_FACE ( 'NONE', ( #741 ), #356, .T. ) ;
#981 = DIRECTION ( 'NONE',  ( -1.067522139062650425E-16, 0.000000000000000000, -1.000000000000000000 ) ) ;
#982 = EDGE_LOOP ( 'NONE', ( #559, #947, #21 ) ) ;
#983 = EDGE_CURVE ( 'NONE', #868, #581, #818, .T. ) ;
#984 = COORDINATED_UNIVERSAL_TIME_OFFSET ( 1, 0, .AHEAD. ) ;
#985 = PLANE ( 'NONE',  #2 ) ;
#986 = ORIENTED_EDGE ( 'NONE', *, *, #436, .F. ) ;
#987 = DIRECTION ( 'NONE',  ( -1.000000000000000000, 0.000000000000000000, 0.000000000000000000 ) ) ;
#988 = PERSON_AND_ORGANIZATION_ROLE ( 'design_owner' ) ;
#989 = ORIENTED_EDGE ( 'NONE', *, *, #517, .F. ) ;
#990 = PLANE ( 'NONE',  #589 ) ;
#991 = LINE ( 'NONE', #829, #956 ) ;
#992 = CYLINDRICAL_SURFACE ( 'NONE', #878, 5.000000000000004441 ) ;
#993 = ORIENTED_EDGE ( 'NONE', *, *, #548, .F. ) ;
#994 = EDGE_CURVE ( 'NONE', #121, #812, #623, .T. ) ;
#995 = ORIENTED_EDGE ( 'NONE', *, *, #739, .F. ) ;
#996 = FACE_OUTER_BOUND ( 'NONE', #982, .T. ) ;
#997 = CARTESIAN_POINT ( 'NONE',  ( 299.2699999999999818, 10.00000000000000000, 239.9999999999999432 ) ) ;
#998 = AXIS2_PLACEMENT_3D ( 'NONE', #489, #794, #411 ) ;
#999 = SPHERICAL_SURFACE ( 'NONE', #341, 5.000000000000000000 ) ;
#1000 = EDGE_LOOP ( 'NONE', ( #936, #925, #907 ) ) ;
#1001 = CARTESIAN_POINT ( 'NONE',  ( 314.2699999999999818, 354.0000000000000000, 254.9999999999999432 ) ) ;
ENDSEC;
END-ISO-10303-21;
