ISO-10303-21;
HEADER;
FILE_DESCRIPTION (( 'STEP AP203' ),
    '1' );
FILE_NAME ('snoopy!wheel_Default_sldprt.STEP',
    '2026-05-21T17:12:21',
    ( '' ),
    ( '' ),
    'SwSTEP 2.0',
    'SolidWorks 2024',
    '' );
FILE_SCHEMA (( 'CONFIG_CONTROL_DESIGN' ));
ENDSEC;

DATA;
#1 = EDGE_LOOP ( 'NONE', ( #59, #79, #258, #460 ) ) ;
#2 = ORIENTED_EDGE ( 'NONE', *, *, #478, .F. ) ;
#3 = CIRCLE ( 'NONE', #105, 9.999999999999994671 ) ;
#4 = VERTEX_POINT ( 'NONE', #388 ) ;
#5 =( NAMED_UNIT ( * ) PLANE_ANGLE_UNIT ( ) SI_UNIT ( $, .RADIAN. ) );
#6 = CARTESIAN_POINT ( 'NONE',  ( 0.000000000000000000, 0.000000000000000000, 0.000000000000000000 ) ) ;
#7 = CIRCLE ( 'NONE', #84, 53.68490669440859619 ) ;
#8 = DIRECTION ( 'NONE',  ( 0.000000000000000000, 0.000000000000000000, -1.000000000000000000 ) ) ;
#9 = ADVANCED_FACE ( 'NONE', ( #85 ), #217, .T. ) ;
#10 = AXIS2_PLACEMENT_3D ( 'NONE', #203, #154, #356 ) ;
#11 = CARTESIAN_POINT ( 'NONE',  ( 3.061616997868383043E-15, 20.00000000000000000, 25.00000000000000000 ) ) ;
#12 = ORIENTED_EDGE ( 'NONE', *, *, #465, .T. ) ;
#13 = CARTESIAN_POINT ( 'NONE',  ( 0.000000000000000000, 0.000000000000000000, 65.00000000000000000 ) ) ;
#14 = CARTESIAN_POINT ( 'NONE',  ( 0.000000000000000000, 20.00000000000000000, -15.00000000000000000 ) ) ;
#15 = AXIS2_PLACEMENT_3D ( 'NONE', #496, #200, #252 ) ;
#16 = CC_DESIGN_APPROVAL ( #249, ( #52 ) ) ;
#17 = CARTESIAN_POINT ( 'NONE',  ( 0.000000000000000000, 1.000000000000000000, 0.000000000000000000 ) ) ;
#18 = COORDINATED_UNIVERSAL_TIME_OFFSET ( 1, 0, .AHEAD. ) ;
#19 = FACE_OUTER_BOUND ( 'NONE', #305, .T. ) ;
#20 = ORIENTED_EDGE ( 'NONE', *, *, #177, .F. ) ;
#21 = CARTESIAN_POINT ( 'NONE',  ( 0.000000000000000000, 10.00000000000000000, 0.000000000000000000 ) ) ;
#22 = APPROVAL_STATUS ( 'not_yet_approved' ) ;
#23 = DIRECTION ( 'NONE',  ( 0.000000000000000000, 1.000000000000000000, 0.000000000000000000 ) ) ;
#24 = PLANE ( 'NONE',  #182 ) ;
#25 = PERSON_AND_ORGANIZATION_ROLE ( 'classification_officer' ) ;
#26 = CC_DESIGN_PERSON_AND_ORGANIZATION_ASSIGNMENT ( #113, #413, ( #37 ) ) ;
#27 = EDGE_CURVE ( 'NONE', #363, #430, #396, .T. ) ;
#28 = DIRECTION ( 'NONE',  ( 0.000000000000000000, -1.000000000000000000, 0.000000000000000000 ) ) ;
#29 = DIRECTION ( 'NONE',  ( 0.000000000000000000, 1.000000000000000000, 0.000000000000000000 ) ) ;
#30 = AXIS2_PLACEMENT_3D ( 'NONE', #457, #116, #415 ) ;
#31 = DIRECTION ( 'NONE',  ( 0.000000000000000000, 0.000000000000000000, -1.000000000000000000 ) ) ;
#32 = DIRECTION ( 'NONE',  ( 0.000000000000000000, 0.000000000000000000, -1.000000000000000000 ) ) ;
#33 = ORIENTED_EDGE ( 'NONE', *, *, #269, .T. ) ;
#34 = TOROIDAL_SURFACE ( 'NONE', #46, 65.00000000000000000, 10.00000000000000000 ) ;
#35 = DIRECTION ( 'NONE',  ( 0.000000000000000000, 0.000000000000000000, 1.000000000000000000 ) ) ;
#36 = EDGE_CURVE ( 'NONE', #39, #342, #495, .T. ) ;
#37 = PRODUCT_DEFINITION_FORMATION_WITH_SPECIFIED_SOURCE ( 'ANY', '', #494, .NOT_KNOWN. ) ;
#38 = AXIS2_PLACEMENT_3D ( 'NONE', #160, #28, #122 ) ;
#39 = VERTEX_POINT ( 'NONE', #14 ) ;
#40 = ORIENTED_EDGE ( 'NONE', *, *, #266, .T. ) ;
#41 = AXIS2_PLACEMENT_3D ( 'NONE', #412, #108, #400 ) ;
#42 = EDGE_LOOP ( 'NONE', ( #89, #45 ) ) ;
#43 = ORIENTED_EDGE ( 'NONE', *, *, #83, .T. ) ;
#44 = ADVANCED_FACE ( 'NONE', ( #230, #479 ), #440, .T. ) ;
#45 = ORIENTED_EDGE ( 'NONE', *, *, #423, .F. ) ;
#46 = AXIS2_PLACEMENT_3D ( 'NONE', #21, #65, #290 ) ;
#47 = CYLINDRICAL_SURFACE ( 'NONE', #215, 25.00000000000000000 ) ;
#48 = CARTESIAN_POINT ( 'NONE',  ( 6.207110874838969666E-15, 1.000000000000000000, 50.68490669440860330 ) ) ;
#49 = EDGE_CURVE ( 'NONE', #510, #111, #188, .T. ) ;
#50 = PERSON_AND_ORGANIZATION_ROLE ( 'design_owner' ) ;
#51 = FACE_OUTER_BOUND ( 'NONE', #209, .T. ) ;
#52 = SECURITY_CLASSIFICATION ( '', '', #199 ) ;
#53 = VECTOR ( 'NONE', #233, 1000.000000000000000 ) ;
#54 = APPROVAL_ROLE ( '' ) ;
#55 = CARTESIAN_POINT ( 'NONE',  ( 0.000000000000000000, 38.00000000000000000, 0.000000000000000000 ) ) ;
#56 = ORIENTED_EDGE ( 'NONE', *, *, #541, .T. ) ;
#57 = CIRCLE ( 'NONE', #81, 50.68490669440860330 ) ;
#58 = DIRECTION ( 'NONE',  ( 0.000000000000000000, 0.000000000000000000, 1.000000000000000000 ) ) ;
#59 = ORIENTED_EDGE ( 'NONE', *, *, #197, .T. ) ;
#60 = CARTESIAN_POINT ( 'NONE',  ( 6.207110874838969666E-15, 0.000000000000000000, 50.68490669440860330 ) ) ;
#61 = PERSON_AND_ORGANIZATION ( #97, #218 ) ;
#62 = PLANE ( 'NONE',  #202 ) ;
#63 = ORIENTED_EDGE ( 'NONE', *, *, #49, .F. ) ;
#64 = AXIS2_PLACEMENT_3D ( 'NONE', #106, #279, #434 ) ;
#65 = DIRECTION ( 'NONE',  ( 0.000000000000000000, 1.000000000000000000, 0.000000000000000000 ) ) ;
#66 = APPROVAL_STATUS ( 'not_yet_approved' ) ;
#67 = CARTESIAN_POINT ( 'NONE',  ( 0.000000000000000000, 10.00000000000000000, 0.000000000000000000 ) ) ;
#68 = CARTESIAN_POINT ( 'NONE',  ( 0.000000000000000000, 1.000000000000000000, 0.000000000000000000 ) ) ;
#69 = DATE_AND_TIME ( #196, #75 ) ;
#70 = DIRECTION ( 'NONE',  ( 1.224646799147354193E-16, 0.000000000000000000, -1.000000000000000000 ) ) ;
#71 = APPLICATION_CONTEXT ( 'configuration controlled 3d designs of mechanical parts and assemblies' ) ;
#72 = LINE ( 'NONE', #333, #391 ) ;
#73 = DIRECTION ( 'NONE',  ( 0.000000000000000000, 0.000000000000000000, 1.000000000000000000 ) ) ;
#74 = DIRECTION ( 'NONE',  ( 0.000000000000000000, -1.000000000000000000, 0.000000000000000000 ) ) ;
#75 = LOCAL_TIME ( 19, 12, 21.00000000000000000, #241 ) ;
#76 = DIRECTION ( 'NONE',  ( 0.000000000000000000, -1.000000000000000000, 0.000000000000000000 ) ) ;
#77 = ORIENTED_EDGE ( 'NONE', *, *, #283, .T. ) ;
#78 = CARTESIAN_POINT ( 'NONE',  ( 0.000000000000000000, 1.000000000000000000, 0.000000000000000000 ) ) ;
#79 = ORIENTED_EDGE ( 'NONE', *, *, #387, .T. ) ;
#80 = ADVANCED_FACE ( 'NONE', ( #51 ), #359, .F. ) ;
#81 = AXIS2_PLACEMENT_3D ( 'NONE', #68, #74, #244 ) ;
#82 = EDGE_LOOP ( 'NONE', ( #340, #444 ) ) ;
#83 = EDGE_CURVE ( 'NONE', #220, #383, #373, .T. ) ;
#84 = AXIS2_PLACEMENT_3D ( 'NONE', #101, #322, #352 ) ;
#85 = FACE_OUTER_BOUND ( 'NONE', #385, .T. ) ;
#86 = CC_DESIGN_PERSON_AND_ORGANIZATION_ASSIGNMENT ( #531, #281, ( #37 ) ) ;
#87 = VERTEX_POINT ( 'NONE', #524 ) ;
#88 = VECTOR ( 'NONE', #348, 1000.000000000000000 ) ;
#89 = ORIENTED_EDGE ( 'NONE', *, *, #481, .F. ) ;
#90 = EDGE_LOOP ( 'NONE', ( #426, #548 ) ) ;
#91 = CLOSED_SHELL ( 'NONE', ( #80, #547, #9, #256, #332, #226, #166, #221, #181, #414, #289, #231, #393, #95, #44, #243, #433, #263 ) ) ;
#92 = MANIFOLD_SOLID_BREP ( 'Boss-Extrude2', #91 ) ;
#93 = DIRECTION ( 'NONE',  ( 0.000000000000000000, 0.000000000000000000, 1.000000000000000000 ) ) ;
#94 = FACE_OUTER_BOUND ( 'NONE', #254, .T. ) ;
#95 = ADVANCED_FACE ( 'NONE', ( #351 ), #179, .T. ) ;
#96 = CARTESIAN_POINT ( 'NONE',  ( 0.000000000000000000, 1.000000000000000000, 0.000000000000000000 ) ) ;
#97 = PERSON ( 'UNSPECIFIED', 'UNSPECIFIED', 'UNSPECIFIED', ('UNSPECIFIED'), ('UNSPECIFIED'), ('UNSPECIFIED') ) ;
#98 = COORDINATED_UNIVERSAL_TIME_OFFSET ( 1, 0, .AHEAD. ) ;
#99 = DIRECTION ( 'NONE',  ( 0.000000000000000000, 1.000000000000000000, 0.000000000000000000 ) ) ;
#100 = ORIENTED_EDGE ( 'NONE', *, *, #269, .F. ) ;
#101 = CARTESIAN_POINT ( 'NONE',  ( 0.000000000000000000, 1.000000000000000000, 0.000000000000000000 ) ) ;
#102 = ORIENTED_EDGE ( 'NONE', *, *, #129, .T. ) ;
#103 = DIRECTION ( 'NONE',  ( 0.000000000000000000, -1.000000000000000000, 0.000000000000000000 ) ) ;
#104 = APPLICATION_PROTOCOL_DEFINITION ( 'international standard', 'config_control_design', 1994, #394 ) ;
#105 = AXIS2_PLACEMENT_3D ( 'NONE', #458, #159, #277 ) ;
#106 = CARTESIAN_POINT ( 'NONE',  ( 0.000000000000000000, 20.00000000000000000, 0.000000000000000000 ) ) ;
#107 = ORIENTED_EDGE ( 'NONE', *, *, #133, .F. ) ;
#108 = DIRECTION ( 'NONE',  ( 0.000000000000000000, -1.000000000000000000, 0.000000000000000000 ) ) ;
#109 = DATE_AND_TIME ( #526, #121 ) ;
#110 = DIRECTION ( 'NONE',  ( -0.000000000000000000, -1.000000000000000000, -0.000000000000000000 ) ) ;
#111 = VERTEX_POINT ( 'NONE', #11 ) ;
#112 = LINE ( 'NONE', #533, #253 ) ;
#113 = PERSON_AND_ORGANIZATION ( #97, #218 ) ;
#114 = DIRECTION ( 'NONE',  ( 0.000000000000000000, 1.000000000000000000, 0.000000000000000000 ) ) ;
#115 = CARTESIAN_POINT ( 'NONE',  ( 9.184850993605148733E-15, 10.00000000000000000, -75.00000000000000000 ) ) ;
#116 = DIRECTION ( 'NONE',  ( 0.000000000000000000, 1.000000000000000000, 0.000000000000000000 ) ) ;
#117 = FACE_OUTER_BOUND ( 'NONE', #424, .T. ) ;
#118 = DIRECTION ( 'NONE',  ( -0.000000000000000000, 1.000000000000000000, 0.000000000000000000 ) ) ;
#119 = ADVANCED_BREP_SHAPE_REPRESENTATION ( 'snoopy!wheel_Default_sldprt', ( #92, #163 ), #291 ) ;
#120 = AXIS2_PLACEMENT_3D ( 'NONE', #312, #274, #431 ) ;
#121 = LOCAL_TIME ( 19, 12, 21.00000000000000000, #449 ) ;
#122 = DIRECTION ( 'NONE',  ( 0.000000000000000000, 0.000000000000000000, -1.000000000000000000 ) ) ;
#123 = EDGE_LOOP ( 'NONE', ( #100, #407, #12, #172 ) ) ;
#124 = EDGE_CURVE ( 'NONE', #111, #510, #545, .T. ) ;
#125 = ORIENTED_EDGE ( 'NONE', *, *, #423, .T. ) ;
#126 = AXIS2_PLACEMENT_3D ( 'NONE', #298, #136, #149 ) ;
#127 = EDGE_LOOP ( 'NONE', ( #137, #386, #422, #20 ) ) ;
#128 = APPROVAL ( #66, 'UNSPECIFIED' ) ;
#129 = EDGE_CURVE ( 'NONE', #219, #194, #436, .T. ) ;
#130 = APPROVAL_PERSON_ORGANIZATION ( #404, #249, #287 ) ;
#131 = VECTOR ( 'NONE', #486, 1000.000000000000000 ) ;
#132 = ORIENTED_EDGE ( 'NONE', *, *, #129, .F. ) ;
#133 = EDGE_CURVE ( 'NONE', #216, #300, #146, .T. ) ;
#134 = VERTEX_POINT ( 'NONE', #483 ) ;
#135 = AXIS2_PLACEMENT_3D ( 'NONE', #501, #418, #32 ) ;
#136 = DIRECTION ( 'NONE',  ( -0.000000000000000000, -1.000000000000000000, -0.000000000000000000 ) ) ;
#137 = ORIENTED_EDGE ( 'NONE', *, *, #481, .T. ) ;
#138 = DIRECTION ( 'NONE',  ( 0.000000000000000000, 0.000000000000000000, -1.000000000000000000 ) ) ;
#139 = AXIS2_PLACEMENT_3D ( 'NONE', #417, #118, #156 ) ;
#140 = APPROVAL_STATUS ( 'not_yet_approved' ) ;
#141 = DIRECTION ( 'NONE',  ( -0.000000000000000000, 1.000000000000000000, 0.000000000000000000 ) ) ;
#142 = CIRCLE ( 'NONE', #41, 65.00000000000000000 ) ;
#143 = LINE ( 'NONE', #224, #167 ) ;
#144 = PRODUCT_RELATED_PRODUCT_CATEGORY ( 'detail', '', ( #494 ) ) ;
#145 = MECHANICAL_CONTEXT ( 'NONE', #394, 'mechanical' ) ;
#146 = LINE ( 'NONE', #180, #53 ) ;
#147 = EDGE_LOOP ( 'NONE', ( #466, #468, #77, #107 ) ) ;
#148 = DIRECTION ( 'NONE',  ( -0.000000000000000000, 1.000000000000000000, 0.000000000000000000 ) ) ;
#149 = DIRECTION ( 'NONE',  ( 0.000000000000000000, 0.000000000000000000, 1.000000000000000000 ) ) ;
#150 = CARTESIAN_POINT ( 'NONE',  ( 0.000000000000000000, 10.00000000000000000, 65.00000000000000000 ) ) ;
#151 = CIRCLE ( 'NONE', #126, 15.00000000000000000 ) ;
#152 = CARTESIAN_POINT ( 'NONE',  ( 0.000000000000000000, 38.00000000000000000, -15.00000000000000000 ) ) ;
#153 = ORIENTED_EDGE ( 'NONE', *, *, #465, .F. ) ;
#154 = DIRECTION ( 'NONE',  ( 1.000000000000000000, 0.000000000000000000, 1.224646799147353947E-16 ) ) ;
#155 = DATE_AND_TIME ( #366, #262 ) ;
#156 = DIRECTION ( 'NONE',  ( 1.000000000000000000, 0.000000000000000000, 0.000000000000000000 ) ) ;
#157 = EDGE_CURVE ( 'NONE', #216, #4, #7, .T. ) ;
#158 = AXIS2_PLACEMENT_3D ( 'NONE', #542, #455, #70 ) ;
#159 = DIRECTION ( 'NONE',  ( -1.000000000000000000, 0.000000000000000000, 0.000000000000000000 ) ) ;
#160 = CARTESIAN_POINT ( 'NONE',  ( 0.000000000000000000, 1.000000000000000000, 0.000000000000000000 ) ) ;
#161 = FACE_OUTER_BOUND ( 'NONE', #275, .T. ) ;
#162 = DIRECTION ( 'NONE',  ( 0.000000000000000000, 0.000000000000000000, -1.000000000000000000 ) ) ;
#163 = AXIS2_PLACEMENT_3D ( 'NONE', #317, #267, #354 ) ;
#164 = CARTESIAN_POINT ( 'NONE',  ( 0.000000000000000000, 38.00000000000000000, 0.000000000000000000 ) ) ;
#165 = EDGE_LOOP ( 'NONE', ( #190, #303, #343, #429 ) ) ;
#166 = ADVANCED_FACE ( 'NONE', ( #517, #447 ), #62, .T. ) ;
#167 = VECTOR ( 'NONE', #392, 1000.000000000000000 ) ;
#168 = DIRECTION ( 'NONE',  ( -0.000000000000000000, 1.000000000000000000, 0.000000000000000000 ) ) ;
#169 = ORIENTED_EDGE ( 'NONE', *, *, #213, .T. ) ;
#170 = PRODUCT_DEFINITION ( 'UNKNOWN', '', #37, #535 ) ;
#171 = ORIENTED_EDGE ( 'NONE', *, *, #382, .T. ) ;
#172 = ORIENTED_EDGE ( 'NONE', *, *, #541, .F. ) ;
#173 = ORIENTED_EDGE ( 'NONE', *, *, #27, .F. ) ;
#174 = ORIENTED_EDGE ( 'NONE', *, *, #335, .T. ) ;
#175 = CIRCLE ( 'NONE', #337, 53.68490669440859619 ) ;
#176 = CARTESIAN_POINT ( 'NONE',  ( 0.000000000000000000, 38.00000000000000000, 0.000000000000000000 ) ) ;
#177 = EDGE_CURVE ( 'NONE', #441, #480, #143, .T. ) ;
#178 = CARTESIAN_POINT ( 'NONE',  ( 0.000000000000000000, 20.00000000000000000, 0.000000000000000000 ) ) ;
#179 = TOROIDAL_SURFACE ( 'NONE', #257, 65.00000000000000000, 10.00000000000000000 ) ;
#180 = CARTESIAN_POINT ( 'NONE',  ( 0.000000000000000000, 1.000000000000000000, -53.68490669440859619 ) ) ;
#181 = ADVANCED_FACE ( 'NONE', ( #515, #94 ), #265, .F. ) ;
#182 = AXIS2_PLACEMENT_3D ( 'NONE', #280, #148, #336 ) ;
#183 = DIRECTION ( 'NONE',  ( 0.000000000000000000, 1.000000000000000000, 0.000000000000000000 ) ) ;
#184 = CARTESIAN_POINT ( 'NONE',  ( 0.000000000000000000, 20.00000000000000000, 0.000000000000000000 ) ) ;
#185 = EDGE_CURVE ( 'NONE', #4, #216, #284, .T. ) ;
#186 = DIRECTION ( 'NONE',  ( 0.000000000000000000, 0.000000000000000000, 1.000000000000000000 ) ) ;
#187 = CARTESIAN_POINT ( 'NONE',  ( 0.000000000000000000, 38.00000000000000000, 0.000000000000000000 ) ) ;
#188 = CIRCLE ( 'NONE', #64, 25.00000000000000000 ) ;
#189 = APPROVAL_PERSON_ORGANIZATION ( #490, #128, #446 ) ;
#190 = ORIENTED_EDGE ( 'NONE', *, *, #325, .F. ) ;
#191 = DIRECTION ( 'NONE',  ( 0.000000000000000000, 0.000000000000000000, -1.000000000000000000 ) ) ;
#192 = SHAPE_DEFINITION_REPRESENTATION ( #411, #119 ) ;
#193 = CYLINDRICAL_SURFACE ( 'NONE', #38, 53.68490669440859619 ) ;
#194 = VERTEX_POINT ( 'NONE', #491 ) ;
#195 = LINE ( 'NONE', #328, #353 ) ;
#196 = CALENDAR_DATE ( 2026, 21, 5 ) ;
#197 = EDGE_CURVE ( 'NONE', #319, #419, #450, .T. ) ;
#198 = CARTESIAN_POINT ( 'NONE',  ( 0.000000000000000000, 38.00000000000000000, -25.00000000000000000 ) ) ;
#199 = SECURITY_CLASSIFICATION_LEVEL ( 'unclassified' ) ;
#200 = DIRECTION ( 'NONE',  ( -0.000000000000000000, -1.000000000000000000, -0.000000000000000000 ) ) ;
#201 = LOCAL_TIME ( 19, 12, 21.00000000000000000, #370 ) ;
#202 = AXIS2_PLACEMENT_3D ( 'NONE', #349, #512, #138 ) ;
#203 = CARTESIAN_POINT ( 'NONE',  ( 7.960204194457800407E-15, 10.00000000000000000, -65.00000000000000000 ) ) ;
#204 = FACE_OUTER_BOUND ( 'NONE', #127, .T. ) ;
#205 = CARTESIAN_POINT ( 'NONE',  ( 0.000000000000000000, 0.000000000000000000, -53.68490669440859619 ) ) ;
#206 = AXIS2_PLACEMENT_3D ( 'NONE', #150, #374, #186 ) ;
#207 = ORIENTED_EDGE ( 'NONE', *, *, #384, .T. ) ;
#208 = FACE_OUTER_BOUND ( 'NONE', #309, .T. ) ;
#209 = EDGE_LOOP ( 'NONE', ( #43, #327, #546, #212 ) ) ;
#210 = CIRCLE ( 'NONE', #158, 9.999999999999994671 ) ;
#211 = EDGE_CURVE ( 'NONE', #462, #510, #242, .T. ) ;
#212 = ORIENTED_EDGE ( 'NONE', *, *, #372, .F. ) ;
#213 = EDGE_CURVE ( 'NONE', #383, #220, #271, .T. ) ;
#214 = ORIENTED_EDGE ( 'NONE', *, *, #516, .F. ) ;
#215 = AXIS2_PLACEMENT_3D ( 'NONE', #482, #321, #389 ) ;
#216 = VERTEX_POINT ( 'NONE', #459 ) ;
#217 = TOROIDAL_SURFACE ( 'NONE', #120, 65.00000000000000000, 10.00000000000000000 ) ;
#218 = ORGANIZATION ( 'UNSPECIFIED', 'UNSPECIFIED', '' ) ;
#219 = VERTEX_POINT ( 'NONE', #292 ) ;
#220 = VERTEX_POINT ( 'NONE', #152 ) ;
#221 = ADVANCED_FACE ( 'NONE', ( #461 ), #193, .F. ) ;
#222 = AXIS2_PLACEMENT_3D ( 'NONE', #295, #76, #162 ) ;
#223 =( LENGTH_UNIT ( ) NAMED_UNIT ( * ) SI_UNIT ( .MILLI., .METRE. ) );
#224 = CARTESIAN_POINT ( 'NONE',  ( 0.000000000000000000, 1.000000000000000000, -50.68490669440860330 ) ) ;
#225 = CC_DESIGN_PERSON_AND_ORGANIZATION_ASSIGNMENT ( #397, #493, ( #170 ) ) ;
#226 = ADVANCED_FACE ( 'NONE', ( #19 ), #502, .T. ) ;
#227 = DIRECTION ( 'NONE',  ( 0.000000000000000000, 1.000000000000000000, 0.000000000000000000 ) ) ;
#228 = AXIS2_PLACEMENT_3D ( 'NONE', #518, #318, #477 ) ;
#229 = APPROVAL_DATE_TIME ( #439, #438 ) ;
#230 = FACE_OUTER_BOUND ( 'NONE', #341, .T. ) ;
#231 = ADVANCED_FACE ( 'NONE', ( #204 ), #282, .T. ) ;
#232 = ORIENTED_EDGE ( 'NONE', *, *, #497, .T. ) ;
#233 = DIRECTION ( 'NONE',  ( 0.000000000000000000, -1.000000000000000000, 0.000000000000000000 ) ) ;
#234 = ORIENTED_EDGE ( 'NONE', *, *, #372, .T. ) ;
#235 = DIRECTION ( 'NONE',  ( -0.000000000000000000, -1.000000000000000000, -0.000000000000000000 ) ) ;
#236 = DATE_AND_TIME ( #278, #201 ) ;
#237 = DIRECTION ( 'NONE',  ( 0.000000000000000000, 0.000000000000000000, 1.000000000000000000 ) ) ;
#238 = CIRCLE ( 'NONE', #310, 65.00000000000000000 ) ;
#239 = ORIENTED_EDGE ( 'NONE', *, *, #157, .F. ) ;
#240 = CARTESIAN_POINT ( 'NONE',  ( 0.000000000000000000, 38.00000000000000000, 0.000000000000000000 ) ) ;
#241 = COORDINATED_UNIVERSAL_TIME_OFFSET ( 1, 0, .AHEAD. ) ;
#242 = LINE ( 'NONE', #330, #507 ) ;
#243 = ADVANCED_FACE ( 'NONE', ( #251 ), #451, .T. ) ;
#244 = DIRECTION ( 'NONE',  ( 0.000000000000000000, 0.000000000000000000, -1.000000000000000000 ) ) ;
#245 = DATE_TIME_ROLE ( 'creation_date' ) ;
#246 = CARTESIAN_POINT ( 'NONE',  ( 0.000000000000000000, 0.000000000000000000, 0.000000000000000000 ) ) ;
#247 = CARTESIAN_POINT ( 'NONE',  ( 6.207110874838969666E-15, 1.000000000000000000, 50.68490669440860330 ) ) ;
#248 = UNCERTAINTY_MEASURE_WITH_UNIT (LENGTH_MEASURE( 1.000000000000000082E-05 ), #223, 'distance_accuracy_value', 'NONE');
#249 = APPROVAL ( #22, 'UNSPECIFIED' ) ;
#250 = FACE_OUTER_BOUND ( 'NONE', #82, .T. ) ;
#251 = FACE_OUTER_BOUND ( 'NONE', #543, .T. ) ;
#252 = DIRECTION ( 'NONE',  ( 0.000000000000000000, 0.000000000000000000, -1.000000000000000000 ) ) ;
#253 = VECTOR ( 'NONE', #286, 1000.000000000000000 ) ;
#254 = EDGE_LOOP ( 'NONE', ( #174, #345 ) ) ;
#255 = ORIENTED_EDGE ( 'NONE', *, *, #83, .F. ) ;
#256 = ADVANCED_FACE ( 'NONE', ( #334 ), #261, .T. ) ;
#257 = AXIS2_PLACEMENT_3D ( 'NONE', #398, #270, #58 ) ;
#258 = ORIENTED_EDGE ( 'NONE', *, *, #266, .F. ) ;
#259 = CIRCLE ( 'NONE', #301, 25.00000000000000000 ) ;
#260 = ORIENTED_EDGE ( 'NONE', *, *, #325, .T. ) ;
#261 = TOROIDAL_SURFACE ( 'NONE', #472, 65.00000000000000000, 10.00000000000000000 ) ;
#262 = LOCAL_TIME ( 19, 12, 21.00000000000000000, #18 ) ;
#263 = ADVANCED_FACE ( 'NONE', ( #250 ), #410, .T. ) ;
#264 = ORIENTED_EDGE ( 'NONE', *, *, #387, .F. ) ;
#265 = PLANE ( 'NONE',  #536 ) ;
#266 = EDGE_CURVE ( 'NONE', #194, #219, #238, .T. ) ;
#267 = DIRECTION ( 'NONE',  ( 0.000000000000000000, 0.000000000000000000, 1.000000000000000000 ) ) ;
#268 = DIRECTION ( 'NONE',  ( 0.000000000000000000, -1.000000000000000000, 0.000000000000000000 ) ) ;
#269 = EDGE_CURVE ( 'NONE', #87, #419, #210, .T. ) ;
#270 = DIRECTION ( 'NONE',  ( 0.000000000000000000, 1.000000000000000000, 0.000000000000000000 ) ) ;
#271 = CIRCLE ( 'NONE', #30, 15.00000000000000000 ) ;
#272 = ORIENTED_EDGE ( 'NONE', *, *, #177, .T. ) ;
#273 = DIRECTION ( 'NONE',  ( 0.000000000000000000, 0.000000000000000000, 1.000000000000000000 ) ) ;
#274 = DIRECTION ( 'NONE',  ( 0.000000000000000000, 1.000000000000000000, 0.000000000000000000 ) ) ;
#275 = EDGE_LOOP ( 'NONE', ( #285, #33, #402, #153 ) ) ;
#276 = AXIS2_PLACEMENT_3D ( 'NONE', #240, #29, #538 ) ;
#277 = DIRECTION ( 'NONE',  ( 0.000000000000000000, 0.000000000000000000, 1.000000000000000000 ) ) ;
#278 = CALENDAR_DATE ( 2026, 21, 5 ) ;
#279 = DIRECTION ( 'NONE',  ( 0.000000000000000000, 1.000000000000000000, 0.000000000000000000 ) ) ;
#280 = CARTESIAN_POINT ( 'NONE',  ( 0.000000000000000000, 20.00000000000000000, 0.000000000000000000 ) ) ;
#281 = PERSON_AND_ORGANIZATION_ROLE ( 'creator' ) ;
#282 = CYLINDRICAL_SURFACE ( 'NONE', #358, 50.68490669440860330 ) ;
#283 = EDGE_CURVE ( 'NONE', #134, #300, #509, .T. ) ;
#284 = CIRCLE ( 'NONE', #520, 53.68490669440859619 ) ;
#285 = ORIENTED_EDGE ( 'NONE', *, *, #530, .F. ) ;
#286 = DIRECTION ( 'NONE',  ( -0.000000000000000000, -1.000000000000000000, -0.000000000000000000 ) ) ;
#287 = APPROVAL_ROLE ( '' ) ;
#288 = DIRECTION ( 'NONE',  ( 0.000000000000000000, 0.000000000000000000, 1.000000000000000000 ) ) ;
#289 = ADVANCED_FACE ( 'NONE', ( #371 ), #537, .F. ) ;
#290 = DIRECTION ( 'NONE',  ( 0.000000000000000000, 0.000000000000000000, 1.000000000000000000 ) ) ;
#291 =( GEOMETRIC_REPRESENTATION_CONTEXT ( 3 ) GLOBAL_UNCERTAINTY_ASSIGNED_CONTEXT ( ( #248 ) ) GLOBAL_UNIT_ASSIGNED_CONTEXT ( ( #223, #5, #485 ) ) REPRESENTATION_CONTEXT ( 'NONE', 'WORKASPACE' ) );
#292 = CARTESIAN_POINT ( 'NONE',  ( 8.572527594031479303E-15, 20.00000000000000000, -65.00000000000000000 ) ) ;
#293 = DIRECTION ( 'NONE',  ( 0.000000000000000000, 0.000000000000000000, -1.000000000000000000 ) ) ;
#294 = EDGE_CURVE ( 'NONE', #430, #480, #376, .T. ) ;
#295 = CARTESIAN_POINT ( 'NONE',  ( 0.000000000000000000, 1.000000000000000000, 0.000000000000000000 ) ) ;
#296 = AXIS2_PLACEMENT_3D ( 'NONE', #78, #326, #499 ) ;
#297 = CC_DESIGN_SECURITY_CLASSIFICATION ( #52, ( #37 ) ) ;
#298 = CARTESIAN_POINT ( 'NONE',  ( 0.000000000000000000, 20.00000000000000000, 0.000000000000000000 ) ) ;
#299 = CARTESIAN_POINT ( 'NONE',  ( 0.000000000000000000, 10.00000000000000000, 0.000000000000000000 ) ) ;
#300 = VERTEX_POINT ( 'NONE', #205 ) ;
#301 = AXIS2_PLACEMENT_3D ( 'NONE', #164, #421, #35 ) ;
#302 = EDGE_LOOP ( 'NONE', ( #214, #239, #378, #232 ) ) ;
#303 = ORIENTED_EDGE ( 'NONE', *, *, #478, .T. ) ;
#304 = AXIS2_PLACEMENT_3D ( 'NONE', #299, #23, #73 ) ;
#305 = EDGE_LOOP ( 'NONE', ( #173, #125, #272, #503 ) ) ;
#306 = CC_DESIGN_PERSON_AND_ORGANIZATION_ASSIGNMENT ( #61, #25, ( #52 ) ) ;
#307 = ORIENTED_EDGE ( 'NONE', *, *, #213, .F. ) ;
#308 = AXIS2_PLACEMENT_3D ( 'NONE', #544, #168, #529 ) ;
#309 = EDGE_LOOP ( 'NONE', ( #508, #488 ) ) ;
#310 = AXIS2_PLACEMENT_3D ( 'NONE', #338, #114, #288 ) ;
#311 = LINE ( 'NONE', #473, #88 ) ;
#312 = CARTESIAN_POINT ( 'NONE',  ( 0.000000000000000000, 10.00000000000000000, 0.000000000000000000 ) ) ;
#313 = CARTESIAN_POINT ( 'NONE',  ( 0.000000000000000000, 0.000000000000000000, 0.000000000000000000 ) ) ;
#314 = DIRECTION ( 'NONE',  ( 1.000000000000000000, 0.000000000000000000, 0.000000000000000000 ) ) ;
#315 = PERSON_AND_ORGANIZATION ( #97, #218 ) ;
#316 = DIRECTION ( 'NONE',  ( -0.000000000000000000, -1.000000000000000000, -0.000000000000000000 ) ) ;
#317 = CARTESIAN_POINT ( 'NONE',  ( 0.000000000000000000, 0.000000000000000000, 0.000000000000000000 ) ) ;
#318 = DIRECTION ( 'NONE',  ( 0.000000000000000000, 1.000000000000000000, 0.000000000000000000 ) ) ;
#319 = VERTEX_POINT ( 'NONE', #377 ) ;
#320 = CYLINDRICAL_SURFACE ( 'NONE', #347, 15.00000000000000000 ) ;
#321 = DIRECTION ( 'NONE',  ( -0.000000000000000000, -1.000000000000000000, -0.000000000000000000 ) ) ;
#322 = DIRECTION ( 'NONE',  ( 0.000000000000000000, -1.000000000000000000, 0.000000000000000000 ) ) ;
#323 = CIRCLE ( 'NONE', #432, 75.00000000000000000 ) ;
#324 = DIRECTION ( 'NONE',  ( 0.000000000000000000, 0.000000000000000000, -1.000000000000000000 ) ) ;
#325 = EDGE_CURVE ( 'NONE', #399, #462, #259, .T. ) ;
#326 = DIRECTION ( 'NONE',  ( 0.000000000000000000, -1.000000000000000000, 0.000000000000000000 ) ) ;
#327 = ORIENTED_EDGE ( 'NONE', *, *, #452, .T. ) ;
#328 = CARTESIAN_POINT ( 'NONE',  ( 1.836970198721029589E-15, 38.00000000000000000, 15.00000000000000000 ) ) ;
#329 = APPROVAL_DATE_TIME ( #109, #128 ) ;
#330 = CARTESIAN_POINT ( 'NONE',  ( 0.000000000000000000, 38.00000000000000000, -25.00000000000000000 ) ) ;
#331 = AXIS2_PLACEMENT_3D ( 'NONE', #187, #401, #8 ) ;
#332 = ADVANCED_FACE ( 'NONE', ( #208 ), #380, .F. ) ;
#333 = CARTESIAN_POINT ( 'NONE',  ( 3.061616997868383043E-15, 38.00000000000000000, 25.00000000000000000 ) ) ;
#334 = FACE_OUTER_BOUND ( 'NONE', #123, .T. ) ;
#335 = EDGE_CURVE ( 'NONE', #360, #87, #142, .T. ) ;
#336 = DIRECTION ( 'NONE',  ( 1.000000000000000000, 0.000000000000000000, 0.000000000000000000 ) ) ;
#337 = AXIS2_PLACEMENT_3D ( 'NONE', #361, #525, #324 ) ;
#338 = CARTESIAN_POINT ( 'NONE',  ( 0.000000000000000000, 20.00000000000000000, 0.000000000000000000 ) ) ;
#339 = DIRECTION ( 'NONE',  ( 0.000000000000000000, -1.000000000000000000, 0.000000000000000000 ) ) ;
#340 = ORIENTED_EDGE ( 'NONE', *, *, #36, .F. ) ;
#341 = EDGE_LOOP ( 'NONE', ( #207, #260 ) ) ;
#342 = VERTEX_POINT ( 'NONE', #365 ) ;
#343 = ORIENTED_EDGE ( 'NONE', *, *, #124, .T. ) ;
#344 = APPROVAL_PERSON_ORGANIZATION ( #315, #438, #54 ) ;
#345 = ORIENTED_EDGE ( 'NONE', *, *, #530, .T. ) ;
#346 = ORIENTED_EDGE ( 'NONE', *, *, #452, .F. ) ;
#347 = AXIS2_PLACEMENT_3D ( 'NONE', #448, #235, #293 ) ;
#348 = DIRECTION ( 'NONE',  ( 0.000000000000000000, -1.000000000000000000, 0.000000000000000000 ) ) ;
#349 = CARTESIAN_POINT ( 'NONE',  ( 0.000000000000000000, 1.000000000000000000, 0.000000000000000000 ) ) ;
#350 = PERSON_AND_ORGANIZATION ( #97, #218 ) ;
#351 = FACE_OUTER_BOUND ( 'NONE', #1, .T. ) ;
#352 = DIRECTION ( 'NONE',  ( 0.000000000000000000, 0.000000000000000000, -1.000000000000000000 ) ) ;
#353 = VECTOR ( 'NONE', #492, 1000.000000000000000 ) ;
#354 = DIRECTION ( 'NONE',  ( 1.000000000000000000, 0.000000000000000000, 0.000000000000000000 ) ) ;
#355 = DIRECTION ( 'NONE',  ( 0.000000000000000000, 0.000000000000000000, 1.000000000000000000 ) ) ;
#356 = DIRECTION ( 'NONE',  ( 1.224646799147354193E-16, 0.000000000000000000, -1.000000000000000000 ) ) ;
#357 = DIRECTION ( 'NONE',  ( 0.000000000000000000, -1.000000000000000000, 0.000000000000000000 ) ) ;
#358 = AXIS2_PLACEMENT_3D ( 'NONE', #527, #339, #362 ) ;
#359 = CYLINDRICAL_SURFACE ( 'NONE', #331, 15.00000000000000000 ) ;
#360 = VERTEX_POINT ( 'NONE', #13 ) ;
#361 = CARTESIAN_POINT ( 'NONE',  ( 0.000000000000000000, 0.000000000000000000, 0.000000000000000000 ) ) ;
#362 = DIRECTION ( 'NONE',  ( 0.000000000000000000, 0.000000000000000000, -1.000000000000000000 ) ) ;
#363 = VERTEX_POINT ( 'NONE', #247 ) ;
#364 = CIRCLE ( 'NONE', #528, 65.00000000000000000 ) ;
#365 = CARTESIAN_POINT ( 'NONE',  ( 1.836970198721029589E-15, 20.00000000000000000, 15.00000000000000000 ) ) ;
#366 = CALENDAR_DATE ( 2026, 21, 5 ) ;
#367 = CC_DESIGN_PERSON_AND_ORGANIZATION_ASSIGNMENT ( #350, #50, ( #494 ) ) ;
#368 = DIRECTION ( 'NONE',  ( 0.000000000000000000, 1.000000000000000000, 0.000000000000000000 ) ) ;
#369 = DIRECTION ( 'NONE',  ( 0.000000000000000000, 0.000000000000000000, -1.000000000000000000 ) ) ;
#370 = COORDINATED_UNIVERSAL_TIME_OFFSET ( 1, 0, .AHEAD. ) ;
#371 = FACE_OUTER_BOUND ( 'NONE', #147, .T. ) ;
#372 = EDGE_CURVE ( 'NONE', #220, #39, #112, .T. ) ;
#373 = CIRCLE ( 'NONE', #513, 15.00000000000000000 ) ;
#374 = DIRECTION ( 'NONE',  ( -1.000000000000000000, 0.000000000000000000, 0.000000000000000000 ) ) ;
#375 = DIRECTION ( 'NONE',  ( 0.000000000000000000, -1.000000000000000000, 0.000000000000000000 ) ) ;
#376 = CIRCLE ( 'NONE', #135, 50.68490669440860330 ) ;
#377 = CARTESIAN_POINT ( 'NONE',  ( 0.000000000000000000, 10.00000000000000000, 75.00000000000000000 ) ) ;
#378 = ORIENTED_EDGE ( 'NONE', *, *, #133, .T. ) ;
#379 = CC_DESIGN_DATE_AND_TIME_ASSIGNMENT ( #69, #245, ( #170 ) ) ;
#380 = PLANE ( 'NONE',  #308 ) ;
#381 = EDGE_LOOP ( 'NONE', ( #428, #390 ) ) ;
#382 = EDGE_CURVE ( 'NONE', #319, #194, #443, .T. ) ;
#383 = VERTEX_POINT ( 'NONE', #453 ) ;
#384 = EDGE_CURVE ( 'NONE', #462, #399, #469, .T. ) ;
#385 = EDGE_LOOP ( 'NONE', ( #264, #56, #171, #132 ) ) ;
#386 = ORIENTED_EDGE ( 'NONE', *, *, #27, .T. ) ;
#387 = EDGE_CURVE ( 'NONE', #419, #219, #427, .T. ) ;
#388 = CARTESIAN_POINT ( 'NONE',  ( 6.574504914583179843E-15, 1.000000000000000000, 53.68490669440859619 ) ) ;
#389 = DIRECTION ( 'NONE',  ( 0.000000000000000000, 0.000000000000000000, -1.000000000000000000 ) ) ;
#390 = ORIENTED_EDGE ( 'NONE', *, *, #283, .F. ) ;
#391 = VECTOR ( 'NONE', #416, 1000.000000000000000 ) ;
#392 = DIRECTION ( 'NONE',  ( 0.000000000000000000, -1.000000000000000000, 0.000000000000000000 ) ) ;
#393 = ADVANCED_FACE ( 'NONE', ( #161 ), #34, .T. ) ;
#394 = APPLICATION_CONTEXT ( 'configuration controlled 3d designs of mechanical parts and assemblies' ) ;
#395 = FACE_OUTER_BOUND ( 'NONE', #165, .T. ) ;
#396 = LINE ( 'NONE', #48, #131 ) ;
#397 = PERSON_AND_ORGANIZATION ( #97, #218 ) ;
#398 = CARTESIAN_POINT ( 'NONE',  ( 0.000000000000000000, 10.00000000000000000, 0.000000000000000000 ) ) ;
#399 = VERTEX_POINT ( 'NONE', #498 ) ;
#400 = DIRECTION ( 'NONE',  ( 0.000000000000000000, 0.000000000000000000, 1.000000000000000000 ) ) ;
#401 = DIRECTION ( 'NONE',  ( -0.000000000000000000, -1.000000000000000000, -0.000000000000000000 ) ) ;
#402 = ORIENTED_EDGE ( 'NONE', *, *, #197, .F. ) ;
#403 = DIRECTION ( 'NONE',  ( 0.000000000000000000, -1.000000000000000000, 0.000000000000000000 ) ) ;
#404 = PERSON_AND_ORGANIZATION ( #97, #218 ) ;
#405 = AXIS2_PLACEMENT_3D ( 'NONE', #178, #316, #237 ) ;
#406 = DIRECTION ( 'NONE',  ( 0.000000000000000000, 1.000000000000000000, 0.000000000000000000 ) ) ;
#407 = ORIENTED_EDGE ( 'NONE', *, *, #335, .F. ) ;
#408 = FACE_BOUND ( 'NONE', #519, .T. ) ;
#409 = DATE_TIME_ROLE ( 'classification_date' ) ;
#410 = PLANE ( 'NONE',  #139 ) ;
#411 = PRODUCT_DEFINITION_SHAPE ( 'NONE', 'NONE',  #170 ) ;
#412 = CARTESIAN_POINT ( 'NONE',  ( 0.000000000000000000, 0.000000000000000000, 0.000000000000000000 ) ) ;
#413 = PERSON_AND_ORGANIZATION_ROLE ( 'design_supplier' ) ;
#414 = ADVANCED_FACE ( 'NONE', ( #408, #522 ), #24, .T. ) ;
#415 = DIRECTION ( 'NONE',  ( 0.000000000000000000, 0.000000000000000000, 1.000000000000000000 ) ) ;
#416 = DIRECTION ( 'NONE',  ( -0.000000000000000000, -1.000000000000000000, -0.000000000000000000 ) ) ;
#417 = CARTESIAN_POINT ( 'NONE',  ( 0.000000000000000000, 20.00000000000000000, 0.000000000000000000 ) ) ;
#418 = DIRECTION ( 'NONE',  ( 0.000000000000000000, -1.000000000000000000, 0.000000000000000000 ) ) ;
#419 = VERTEX_POINT ( 'NONE', #115 ) ;
#420 = CIRCLE ( 'NONE', #500, 50.68490669440860330 ) ;
#421 = DIRECTION ( 'NONE',  ( 0.000000000000000000, 1.000000000000000000, 0.000000000000000000 ) ) ;
#422 = ORIENTED_EDGE ( 'NONE', *, *, #474, .F. ) ;
#423 = EDGE_CURVE ( 'NONE', #363, #441, #57, .T. ) ;
#424 = EDGE_LOOP ( 'NONE', ( #346, #169, #234, #549 ) ) ;
#425 = AXIS2_PLACEMENT_3D ( 'NONE', #55, #99, #442 ) ;
#426 = ORIENTED_EDGE ( 'NONE', *, *, #157, .T. ) ;
#427 = CIRCLE ( 'NONE', #10, 9.999999999999994671 ) ;
#428 = ORIENTED_EDGE ( 'NONE', *, *, #497, .F. ) ;
#429 = ORIENTED_EDGE ( 'NONE', *, *, #211, .F. ) ;
#430 = VERTEX_POINT ( 'NONE', #60 ) ;
#431 = DIRECTION ( 'NONE',  ( 0.000000000000000000, 0.000000000000000000, 1.000000000000000000 ) ) ;
#432 = AXIS2_PLACEMENT_3D ( 'NONE', #523, #183, #93 ) ;
#433 = ADVANCED_FACE ( 'NONE', ( #117 ), #320, .F. ) ;
#434 = DIRECTION ( 'NONE',  ( 0.000000000000000000, 0.000000000000000000, 1.000000000000000000 ) ) ;
#435 = CC_DESIGN_APPROVAL ( #438, ( #170 ) ) ;
#436 = CIRCLE ( 'NONE', #228, 65.00000000000000000 ) ;
#437 = CC_DESIGN_DATE_AND_TIME_ASSIGNMENT ( #236, #409, ( #52 ) ) ;
#438 = APPROVAL ( #140, 'UNSPECIFIED' ) ;
#439 = DATE_AND_TIME ( #476, #534 ) ;
#440 = PLANE ( 'NONE',  #425 ) ;
#441 = VERTEX_POINT ( 'NONE', #456 ) ;
#442 = DIRECTION ( 'NONE',  ( 0.000000000000000000, -0.000000000000000000, 1.000000000000000000 ) ) ;
#443 = CIRCLE ( 'NONE', #206, 9.999999999999994671 ) ;
#444 = ORIENTED_EDGE ( 'NONE', *, *, #511, .F. ) ;
#445 = CARTESIAN_POINT ( 'NONE',  ( 0.000000000000000000, 0.000000000000000000, -50.68490669440860330 ) ) ;
#446 = APPROVAL_ROLE ( '' ) ;
#447 = FACE_OUTER_BOUND ( 'NONE', #90, .T. ) ;
#448 = CARTESIAN_POINT ( 'NONE',  ( 0.000000000000000000, 38.00000000000000000, 0.000000000000000000 ) ) ;
#449 = COORDINATED_UNIVERSAL_TIME_OFFSET ( 1, 0, .AHEAD. ) ;
#450 = CIRCLE ( 'NONE', #304, 75.00000000000000000 ) ;
#451 = CYLINDRICAL_SURFACE ( 'NONE', #15, 25.00000000000000000 ) ;
#452 = EDGE_CURVE ( 'NONE', #383, #342, #195, .T. ) ;
#453 = CARTESIAN_POINT ( 'NONE',  ( 1.836970198721029589E-15, 38.00000000000000000, 15.00000000000000000 ) ) ;
#454 = APPROVAL_DATE_TIME ( #155, #249 ) ;
#455 = DIRECTION ( 'NONE',  ( 1.000000000000000000, 0.000000000000000000, 1.224646799147353947E-16 ) ) ;
#456 = CARTESIAN_POINT ( 'NONE',  ( 0.000000000000000000, 1.000000000000000000, -50.68490669440860330 ) ) ;
#457 = CARTESIAN_POINT ( 'NONE',  ( 0.000000000000000000, 38.00000000000000000, 0.000000000000000000 ) ) ;
#458 = CARTESIAN_POINT ( 'NONE',  ( 0.000000000000000000, 10.00000000000000000, 65.00000000000000000 ) ) ;
#459 = CARTESIAN_POINT ( 'NONE',  ( 0.000000000000000000, 1.000000000000000000, -53.68490669440859619 ) ) ;
#460 = ORIENTED_EDGE ( 'NONE', *, *, #382, .F. ) ;
#461 = FACE_OUTER_BOUND ( 'NONE', #302, .T. ) ;
#462 = VERTEX_POINT ( 'NONE', #198 ) ;
#463 = AXIS2_PLACEMENT_3D ( 'NONE', #484, #103, #369 ) ;
#464 = ORIENTED_EDGE ( 'NONE', *, *, #49, .T. ) ;
#465 = EDGE_CURVE ( 'NONE', #360, #319, #3, .T. ) ;
#466 = ORIENTED_EDGE ( 'NONE', *, *, #185, .F. ) ;
#467 = AXIS2_PLACEMENT_3D ( 'NONE', #184, #406, #355 ) ;
#468 = ORIENTED_EDGE ( 'NONE', *, *, #516, .T. ) ;
#469 = CIRCLE ( 'NONE', #276, 25.00000000000000000 ) ;
#470 = ORIENTED_EDGE ( 'NONE', *, *, #384, .F. ) ;
#471 = ORIENTED_EDGE ( 'NONE', *, *, #211, .T. ) ;
#472 = AXIS2_PLACEMENT_3D ( 'NONE', #67, #368, #532 ) ;
#473 = CARTESIAN_POINT ( 'NONE',  ( 6.574504914583179843E-15, 1.000000000000000000, 53.68490669440859619 ) ) ;
#474 = EDGE_CURVE ( 'NONE', #480, #430, #487, .T. ) ;
#475 = DIRECTION ( 'NONE',  ( 0.000000000000000000, 0.000000000000000000, 1.000000000000000000 ) ) ;
#476 = CALENDAR_DATE ( 2026, 21, 5 ) ;
#477 = DIRECTION ( 'NONE',  ( 0.000000000000000000, 0.000000000000000000, 1.000000000000000000 ) ) ;
#478 = EDGE_CURVE ( 'NONE', #399, #111, #72, .T. ) ;
#479 = FACE_BOUND ( 'NONE', #506, .T. ) ;
#480 = VERTEX_POINT ( 'NONE', #445 ) ;
#481 = EDGE_CURVE ( 'NONE', #441, #363, #420, .T. ) ;
#482 = CARTESIAN_POINT ( 'NONE',  ( 0.000000000000000000, 38.00000000000000000, 0.000000000000000000 ) ) ;
#483 = CARTESIAN_POINT ( 'NONE',  ( 6.574504914583179843E-15, 0.000000000000000000, 53.68490669440859619 ) ) ;
#484 = CARTESIAN_POINT ( 'NONE',  ( 0.000000000000000000, 0.000000000000000000, 0.000000000000000000 ) ) ;
#485 =( NAMED_UNIT ( * ) SI_UNIT ( $, .STERADIAN. ) SOLID_ANGLE_UNIT ( ) );
#486 = DIRECTION ( 'NONE',  ( 0.000000000000000000, -1.000000000000000000, 0.000000000000000000 ) ) ;
#487 = CIRCLE ( 'NONE', #463, 50.68490669440860330 ) ;
#488 = ORIENTED_EDGE ( 'NONE', *, *, #294, .T. ) ;
#489 = CARTESIAN_POINT ( 'NONE',  ( 0.000000000000000000, 20.00000000000000000, -25.00000000000000000 ) ) ;
#490 = PERSON_AND_ORGANIZATION ( #97, #218 ) ;
#491 = CARTESIAN_POINT ( 'NONE',  ( 0.000000000000000000, 20.00000000000000000, 65.00000000000000000 ) ) ;
#492 = DIRECTION ( 'NONE',  ( -0.000000000000000000, -1.000000000000000000, -0.000000000000000000 ) ) ;
#493 = PERSON_AND_ORGANIZATION_ROLE ( 'creator' ) ;
#494 = PRODUCT ( 'snoopy!wheel_Default_sldprt', 'snoopy!wheel_Default_sldprt', '', ( #145 ) ) ;
#495 = CIRCLE ( 'NONE', #405, 15.00000000000000000 ) ;
#496 = CARTESIAN_POINT ( 'NONE',  ( 0.000000000000000000, 38.00000000000000000, 0.000000000000000000 ) ) ;
#497 = EDGE_CURVE ( 'NONE', #300, #134, #175, .T. ) ;
#498 = CARTESIAN_POINT ( 'NONE',  ( 3.061616997868383043E-15, 38.00000000000000000, 25.00000000000000000 ) ) ;
#499 = DIRECTION ( 'NONE',  ( 0.000000000000000000, 0.000000000000000000, -1.000000000000000000 ) ) ;
#500 = AXIS2_PLACEMENT_3D ( 'NONE', #17, #403, #191 ) ;
#501 = CARTESIAN_POINT ( 'NONE',  ( 0.000000000000000000, 0.000000000000000000, 0.000000000000000000 ) ) ;
#502 = CYLINDRICAL_SURFACE ( 'NONE', #296, 50.68490669440860330 ) ;
#503 = ORIENTED_EDGE ( 'NONE', *, *, #294, .F. ) ;
#504 = EDGE_LOOP ( 'NONE', ( #40, #102 ) ) ;
#505 = ORIENTED_EDGE ( 'NONE', *, *, #124, .F. ) ;
#506 = EDGE_LOOP ( 'NONE', ( #255, #307 ) ) ;
#507 = VECTOR ( 'NONE', #110, 1000.000000000000000 ) ;
#508 = ORIENTED_EDGE ( 'NONE', *, *, #474, .T. ) ;
#509 = CIRCLE ( 'NONE', #540, 53.68490669440859619 ) ;
#510 = VERTEX_POINT ( 'NONE', #489 ) ;
#511 = EDGE_CURVE ( 'NONE', #342, #39, #151, .T. ) ;
#512 = DIRECTION ( 'NONE',  ( 0.000000000000000000, -1.000000000000000000, 0.000000000000000000 ) ) ;
#513 = AXIS2_PLACEMENT_3D ( 'NONE', #176, #227, #475 ) ;
#514 = APPLICATION_PROTOCOL_DEFINITION ( 'international standard', 'config_control_design', 1994, #71 ) ;
#515 = FACE_BOUND ( 'NONE', #381, .T. ) ;
#516 = EDGE_CURVE ( 'NONE', #4, #134, #311, .T. ) ;
#517 = FACE_BOUND ( 'NONE', #42, .T. ) ;
#518 = CARTESIAN_POINT ( 'NONE',  ( 0.000000000000000000, 20.00000000000000000, 0.000000000000000000 ) ) ;
#519 = EDGE_LOOP ( 'NONE', ( #63, #505 ) ) ;
#520 = AXIS2_PLACEMENT_3D ( 'NONE', #96, #268, #31 ) ;
#521 = CC_DESIGN_APPROVAL ( #128, ( #37 ) ) ;
#522 = FACE_OUTER_BOUND ( 'NONE', #504, .T. ) ;
#523 = CARTESIAN_POINT ( 'NONE',  ( 0.000000000000000000, 10.00000000000000000, 0.000000000000000000 ) ) ;
#524 = CARTESIAN_POINT ( 'NONE',  ( 8.572527594031479303E-15, 0.000000000000000000, -65.00000000000000000 ) ) ;
#525 = DIRECTION ( 'NONE',  ( 0.000000000000000000, -1.000000000000000000, 0.000000000000000000 ) ) ;
#526 = CALENDAR_DATE ( 2026, 21, 5 ) ;
#527 = CARTESIAN_POINT ( 'NONE',  ( 0.000000000000000000, 1.000000000000000000, 0.000000000000000000 ) ) ;
#528 = AXIS2_PLACEMENT_3D ( 'NONE', #313, #357, #273 ) ;
#529 = DIRECTION ( 'NONE',  ( 1.000000000000000000, 0.000000000000000000, 0.000000000000000000 ) ) ;
#530 = EDGE_CURVE ( 'NONE', #87, #360, #364, .T. ) ;
#531 = PERSON_AND_ORGANIZATION ( #97, #218 ) ;
#532 = DIRECTION ( 'NONE',  ( 0.000000000000000000, 0.000000000000000000, 1.000000000000000000 ) ) ;
#533 = CARTESIAN_POINT ( 'NONE',  ( 0.000000000000000000, 38.00000000000000000, -15.00000000000000000 ) ) ;
#534 = LOCAL_TIME ( 19, 12, 21.00000000000000000, #98 ) ;
#535 = DESIGN_CONTEXT ( 'detailed design', #71, 'design' ) ;
#536 = AXIS2_PLACEMENT_3D ( 'NONE', #6, #141, #314 ) ;
#537 = CYLINDRICAL_SURFACE ( 'NONE', #222, 53.68490669440859619 ) ;
#538 = DIRECTION ( 'NONE',  ( 0.000000000000000000, 0.000000000000000000, 1.000000000000000000 ) ) ;
#539 = DIRECTION ( 'NONE',  ( 0.000000000000000000, 0.000000000000000000, -1.000000000000000000 ) ) ;
#540 = AXIS2_PLACEMENT_3D ( 'NONE', #246, #375, #539 ) ;
#541 = EDGE_CURVE ( 'NONE', #419, #319, #323, .T. ) ;
#542 = CARTESIAN_POINT ( 'NONE',  ( 7.960204194457800407E-15, 10.00000000000000000, -65.00000000000000000 ) ) ;
#543 = EDGE_LOOP ( 'NONE', ( #2, #470, #471, #464 ) ) ;
#544 = CARTESIAN_POINT ( 'NONE',  ( 0.000000000000000000, 0.000000000000000000, 0.000000000000000000 ) ) ;
#545 = CIRCLE ( 'NONE', #467, 25.00000000000000000 ) ;
#546 = ORIENTED_EDGE ( 'NONE', *, *, #511, .T. ) ;
#547 = ADVANCED_FACE ( 'NONE', ( #395 ), #47, .T. ) ;
#548 = ORIENTED_EDGE ( 'NONE', *, *, #185, .T. ) ;
#549 = ORIENTED_EDGE ( 'NONE', *, *, #36, .T. ) ;
ENDSEC;
END-ISO-10303-21;
